<?xml version="1.0" encoding="UTF-8"?>
<svg width="305px" height="309px" viewBox="0 0 305 309" version="1.1" xmlns="http://www.w3.org/2000/svg" xmlns:xlink="http://www.w3.org/1999/xlink">
    <title>Group 3</title>
    <defs>
        <polygon id="path-1" points="0 0 304.83 0 304.83 308.1826 0 308.1826"></polygon>
    </defs>
    <g id="Chronnect" stroke="none" stroke-width="1" fill="none" fill-rule="evenodd" opacity="0.4">
        <g id="Conecta" transform="translate(-193.000000, -831.000000)">
            <g id="Group-3" transform="translate(193.000000, 831.000000)">
                <mask id="mask-2" fill="white">
                    <use xlink:href="#path-1"></use>
                </mask>
                <g id="Clip-2"></g>
                <path d="M33.358,74.6186 C29.93,80.1636 26.587,85.9626 23.417,91.9576 C4.68,127.4076 -7.863,169.8066 5.697,208.2396 C9.557,219.1806 15.719,229.1226 23.417,237.8006 C25.897,240.5976 28.538,243.2636 31.312,245.7876 C34.087,248.3126 36.995,250.6976 40.012,252.9326 C43.633,255.6146 47.411,258.0806 51.302,260.3156 C81.438,277.6266 108.337,276.5496 140.944,277.9716 C152.299,278.4666 163.635,279.4426 174.909,280.8936 C186.183,282.3456 197.397,284.2726 208.508,286.6706 C214.452,287.9526 220.734,289.4766 227.268,291.1226 C251.143,297.1376 278.382,304.7606 304.83,308.1826 L304.83,7.9996 C304.83,3.5816 301.248,-0.0004 296.83,-0.0004 L111.909,-0.0004 C98.746,7.3736 86.329,16.0876 74.934,25.9676 C58.75,39.9986 44.628,56.3826 33.358,74.6186" id="Fill-1" fill="#FFDD53" mask="url(#mask-2)"></path>
            </g>
        </g>
    </g>
</svg>