<?xml version="1.0" encoding="UTF-8"?>
<svg width="274px" height="355px" viewBox="0 0 274 355" version="1.1" xmlns="http://www.w3.org/2000/svg" xmlns:xlink="http://www.w3.org/1999/xlink">
    <title>Group 3</title>
    <defs>
        <polygon id="path-1" points="0 0.0004 273.080544 0.0004 273.080544 354.422 0 354.422"></polygon>
    </defs>
    <g id="Chronnect" stroke="none" stroke-width="1" fill="none" fill-rule="evenodd" opacity="0.4">
        <g id="Conecta" transform="translate(-527.000000, -831.000000)">
            <g id="Group-3" transform="translate(664.000000, 1008.500000) scale(-1, 1) translate(-664.000000, -1008.500000) translate(527.000000, 831.000000)">
                <mask id="mask-2" fill="white">
                    <use xlink:href="#path-1"></use>
                </mask>
                <g id="Clip-2"></g>
                <path d="M3.8858315,184.991 C-6.21704029,232.261 2.27294505,286.386 37.529619,319.575 C53.3061978,334.424 73.1325568,343.924 94.2837509,349.192 C108.550821,352.747 123.420088,354.378 138.057509,354.421979 C185.096183,354.559 230.219868,340.1 273,319.72 L273,8 C273,3.581 269.405883,0 264.970696,0 L97.1030403,0 C87.2621245,18.521 76.1987473,36.526 65.2116484,54.336 C39.8119487,95.509 13.9887033,137.722 3.8858315,184.991" id="Fill-1" fill="#FFDD53" mask="url(#mask-2)"></path>
            </g>
        </g>
    </g>
</svg>