<?xml version="1.0" encoding="UTF-8"?>
<svg width="232px" height="380px" viewBox="0 0 232 380" version="1.1" xmlns="http://www.w3.org/2000/svg" xmlns:xlink="http://www.w3.org/1999/xlink">
    <title>Group 3</title>
    <defs>
        <polygon id="path-1" points="2.82535643e-05 0 231.9898 0 231.9898 379.9995 2.82535643e-05 379.9995"></polygon>
    </defs>
    <g id="Chronnect" stroke="none" stroke-width="1" fill="none" fill-rule="evenodd" opacity="0.4">
        <g id="Conecta" transform="translate(-1092.000000, -1241.000000)">
            <g id="Group-3" transform="translate(1092.000000, 1241.000000)">
                <mask id="mask-2" fill="white">
                    <use xlink:href="#path-1"></use>
                </mask>
                <g id="Clip-2"></g>
                <path d="M231.9898,371.9995 L231.9898,308.1835 L231.9898,7.9995 C231.9898,3.5815 228.4078,-0.0005 223.9898,-0.0005 L177.3108,-0.0005 C173.0358,5.4075 169.2748,11.1225 166.1158,17.1585 C151.3448,45.3925 151.8558,71.4965 125.4158,94.6675 C122.8168,96.9455 120.1748,99.1625 117.5098,101.3455 C116.4448,102.2165 115.3748,103.0795 114.3018,103.9385 C112.0458,105.7445 109.7788,107.5335 107.4948,109.2945 L107.4948,109.2945 C110.8478,110.2705 110.8478,110.2705 107.4938,109.2955 C79.2948,131.0465 49.3498,149.9305 28.4278,179.2065 C-2.4092,222.3565 -8.6692,279.4135 12.1538,327.5365 C13.0048,329.5035 13.9168,331.4455 14.8538,333.3785 L14.8548,333.3785 C23.2208,350.6015 35.0078,366.3855 49.2948,379.9995 L223.9898,379.9995 C228.4078,379.9995 231.9898,376.4185 231.9898,371.9995" id="Fill-1" fill="#FFDD53" mask="url(#mask-2)"></path>
            </g>
        </g>
    </g>
</svg>