<?xml version="1.0" encoding="UTF-8"?>
<svg width="322px" height="321px" viewBox="0 0 322 321" version="1.1" xmlns="http://www.w3.org/2000/svg" xmlns:xlink="http://www.w3.org/1999/xlink">
    <title>Group 3</title>
    <defs>
        <polygon id="path-1" points="0 0 322 0 322 321 0 321"></polygon>
    </defs>
    <g id="Chronnect" stroke="none" stroke-width="1" fill="none" fill-rule="evenodd" opacity="0.4">
        <g id="Conecta" transform="translate(-115.000000, -1300.000000)">
            <g id="Group-3" transform="translate(276.000000, 1460.500000) scale(-1, 1) translate(-276.000000, -1460.500000) translate(115.000000, 1300.000000)">
                <mask id="mask-2" fill="white">
                    <use xlink:href="#path-1"></use>
                </mask>
                <g id="Clip-2"></g>
                <path d="M322,260.562307 L322,147.845207 L322,23.1498533 C268.394393,17.3587432 203.27235,-6.94567157 146.916967,1.92848275 C96.5584562,9.8581728 55.3348424,50.4210088 27.127632,93.4212044 C-11.0760321,151.660161 -7.48371291,236.506541 28.8337334,303.939486 C32.3610106,310.489576 36.1244403,316.077155 40.059981,321 L313.994832,321 C318.415686,321 322,317.408629 322,312.979072 L322,260.562307 Z" id="Fill-1" fill="#FFDD53" mask="url(#mask-2)"></path>
            </g>
        </g>
    </g>
</svg>