<?xml version="1.0" encoding="UTF-8"?>
<svg width="234px" height="326px" viewBox="0 0 234 326" version="1.1" xmlns="http://www.w3.org/2000/svg" xmlns:xlink="http://www.w3.org/1999/xlink">
    <title>Group 3</title>
    <defs>
        <polygon id="path-1" points="0 0.0004 233.813 0.0004 233.813 325.544 0 325.544"></polygon>
    </defs>
    <g id="Chronnect" stroke="none" stroke-width="1" fill="none" fill-rule="evenodd" opacity="0.4">
        <g id="Conecta" transform="translate(-678.000000, -1295.000000)">
            <g id="Group-3" transform="translate(678.000000, 1295.000000)">
                <mask id="mask-2" fill="white">
                    <use xlink:href="#path-1"></use>
                </mask>
                <g id="Clip-2"></g>
                <path d="M233.8133,0.0004 C215.5873,5.7224 196.6553,8.9364 177.5453,11.5714 C157.8653,14.2864 138.0003,16.4024 118.5383,20.0504 C115.6833,20.5854 112.8183,21.1754 109.9533,21.8084 C75.4253,29.4394 40.6713,44.3874 19.6793,71.1244 C19.6863,71.1294 19.6923,71.1344 19.6993,71.1404 C19.6923,71.1344 19.6853,71.1294 19.6783,71.1244 C18.5853,72.5164 17.5413,73.9484 16.5233,75.4024 C14.0543,78.9304 11.8013,82.6364 9.8283,86.5604 C-8.4967,122.9874 0.7153,168.0664 21.7363,203.0304 C42.7563,237.9974 74.0773,265.4214 103.1503,294.1434 C113.2923,304.1624 123.3103,314.5754 132.5493,325.5444 L225.8133,325.5444 C230.2313,325.5444 233.8133,321.9624 233.8133,317.5444 L233.8133,265.2644 L233.8133,129.3134 L233.8133,102.4224 C233.8133,102.4234 233.8073,102.4244 233.8053,102.4254 C233.8073,102.4244 233.8103,102.4234 233.8133,102.4224 L233.8133,0.0004 Z" id="Fill-1" fill="#FFDD53" mask="url(#mask-2)"></path>
            </g>
        </g>
    </g>
</svg>