<?xml version="1.0" encoding="UTF-8"?>
<svg width="1326px" height="695px" viewBox="0 0 1326 695" version="1.1" xmlns="http://www.w3.org/2000/svg" xmlns:xlink="http://www.w3.org/1999/xlink">
    <title>Group 23</title>
    <defs>
        <polygon id="path-1" points="0 -2.27373675e-13 919.3959 -2.27373675e-13 919.3959 262.593 0 262.593"></polygon>
        <polygon id="path-3" points="0.0002 0 439.6302 0 439.6302 332.5504 0.0002 332.5504"></polygon>
        <polygon id="path-5" points="0 0 456.2046 0 456.2046 280.834725 0 280.834725"></polygon>
        <polygon id="path-7" points="0.302 0 656.49 0 656.49 194.6079 0.302 194.6079"></polygon>
    </defs>
    <g id="Chronnect" stroke="none" stroke-width="1" fill="none" fill-rule="evenodd">
        <g id="Group-23">
            <g id="Group-3" transform="translate(0.000000, 432.406300)">
                <mask id="mask-2" fill="white">
                    <use xlink:href="#path-1"></use>
                </mask>
                <g id="Clip-2"></g>
                <path d="M869.7959,38.229 C861.5079,36.5 853.1979,34.873 844.8679,33.363 C834.5609,102.519 741.6919,153.435 683.2879,174.107 C636.5249,190.659 587.3459,198.209 537.6749,200.718 C507.6619,202.235 477.4709,201.912 447.5249,200.618 C350.8839,196.438 252.1759,181.733 167.6409,134.716 C111.7609,103.64 64.3059,59.699 17.4479,16.197 C11.6319,10.798 5.8169,5.399 -0.000100000001,-2.27373675e-13 L-0.000100000001,162.83 L-0.000100000001,254.593 C-0.000100000001,259.01 3.5799,262.593 7.9959,262.593 L919.3959,262.593 C884.6119,215.837 864.0229,157.894 864.0229,95.139 C864.0229,75.64 866.0129,56.608 869.7959,38.229" id="Fill-1" fill="#FAC727" mask="url(#mask-2)"></path>
            </g>
            <g id="Group-6">
                <mask id="mask-4" fill="white">
                    <use xlink:href="#path-3"></use>
                </mask>
                <g id="Clip-5"></g>
                <path d="M78.9912,143.4624 L78.9932,143.4624 C132.3882,181.2024 185.7652,218.9624 241.9572,252.3224 C297.0432,285.0244 356.0602,313.5714 417.2682,332.5504 C407.2252,317.8534 398.9702,301.9974 393.0222,285.1374 C360.7222,193.5844 390.6022,92.5854 435.2342,8.1384 C436.6802,5.4024 438.1552,2.7004 439.6302,-0.0006 L325.8052,-0.0006 L8.0002,-0.0006 C3.5822,-0.0006 0.0002,3.5814 0.0002,7.9994 L0.0002,88.4264 C7.2562,93.3414 14.4892,98.2914 21.7002,103.2744 C40.8862,116.5334 59.9402,129.9954 78.9912,143.4624" id="Fill-4" fill="#FAC727" mask="url(#mask-4)"></path>
            </g>
            <g id="Group-11" transform="translate(869.795400, 246.710400)">
                <mask id="mask-6" fill="white">
                    <use xlink:href="#path-5"></use>
                </mask>
                <g id="Clip-10"></g>
                <path d="M275.062,0 C139.459,0 26.308,96.109 0,223.925 C2.119,224.367 4.237,224.804 6.352,225.26 C20.511,228.314 35.475,231.945 51.04,235.866 C118.485,252.856 197.213,275.297 270.682,279.963 C315.072,282.781 357.542,279.115 394.444,263.836 C417.185,254.42 438.182,240.832 456.205,224.074 L456.205,66.248 C407.303,24.926 344.098,0 275.062,0" id="Fill-9" fill="#FAC727" mask="url(#mask-6)"></path>
            </g>
            <path d="M842.5254,429.4175 C812.8384,322.2125 683.3974,348.9445 603.9134,355.5485 C589.5214,356.7455 575.1574,357.1435 560.8334,356.8825 C512.2144,355.9945 464.1004,347.0715 417.2684,332.5505 C422.7524,340.5735 428.7594,348.2565 435.2344,355.5565 C441.1434,362.2185 447.4324,368.5675 454.0424,374.5835 C460.6504,380.5995 467.5794,386.2785 474.7664,391.6035 C483.3924,397.9915 492.3914,403.8665 501.6614,409.1905 C573.4504,450.4285 637.5254,447.8605 715.1984,451.2485 C742.2514,452.4275 769.2544,454.7535 796.1094,458.2105 C812.4234,460.3115 828.6824,462.8355 844.8674,465.7695 C846.5994,454.1465 846.0134,442.0135 842.5254,429.4175" id="Fill-15" fill="#FAC727"></path>
            <g id="Group-22" transform="translate(591.000000, 0.000000)">
                <mask id="mask-8" fill="white">
                    <use xlink:href="#path-7"></use>
                </mask>
                <g id="Clip-21"></g>
                <path d="M328.396,194.6079 C469.903,194.6079 593.039,115.9629 656.49,-0.0001 L340.519,-0.0001 L0.302,-0.0001 C63.753,115.9629 186.889,194.6079 328.396,194.6079" id="Fill-20" fill="#FAC727" mask="url(#mask-8)"></path>
            </g>
        </g>
    </g>
</svg>