<?xml version="1.0" encoding="UTF-8"?>
<svg width="789px" height="741px" viewBox="0 0 789 741" version="1.1" xmlns="http://www.w3.org/2000/svg" xmlns:xlink="http://www.w3.org/1999/xlink">
    <title>Fill 1</title>
    <g id="Chronnect" stroke="none" stroke-width="1" fill="none" fill-rule="evenodd">
        <path d="M137.308799,668.049116 C204.919893,714.35123 289.073438,739.704788 370.865661,740.954483 C495.753918,742.866372 620.200056,684.434495 698.457201,587.141557 C751.029303,521.781436 781.985247,439.843867 787.941309,356.264936 C790.851514,315.42859 787.793726,274.201833 778.373553,234.32457 C775.509821,222.198573 772.191408,209.841593 768.369329,197.45574 C745.76845,124.224611 705.397985,49.9716315 635.092722,16.355398 C615.078622,6.78465411 593.301694,1.67728639 571.158635,0.351642963 C564.02254,-0.0758017233 556.848136,-0.109068343 549.681897,0.227363891 C542.516285,0.563796126 535.358838,1.27181023 528.256655,2.33006536 C519.733911,3.59859063 511.289668,5.37113658 503.006824,7.60941522 C438.847909,24.9425797 403.932352,62.7516627 357.919203,104.896705 C341.892976,119.576071 325.245647,133.576297 308.038131,146.850934 C290.830615,160.126198 273.061656,172.675874 254.794057,184.452885 C245.022825,190.75283 234.467207,197.182703 223.406668,203.788324 C175.477456,232.413937 118.049569,264.348637 73.6962546,303.382308 C46.8996305,326.967714 24.8721259,353.142267 12.5982685,382.747049 C-2.53429744,419.24618 -4.22678853,461.258783 8.5645504,498.642932 C11.0320077,505.857395 13.932793,513.177307 17.2154093,520.5399 C42.2485771,576.688306 89.5447537,635.338613 137.308799,668.049116" id="Fill-1" fill="#F1EBDD"></path>
    </g>
</svg>