<?xml version="1.0" encoding="UTF-8"?>
<svg width="22px" height="22px" viewBox="0 0 22 22" version="1.1" xmlns="http://www.w3.org/2000/svg" xmlns:xlink="http://www.w3.org/1999/xlink">
    <title>Group 8</title>
    <defs>
        <filter color-interpolation-filters="auto" id="filter-1">
            <feColorMatrix in="SourceGraphic" type="matrix" values="0 0 0 0 0.494118 0 0 0 0 0.792157 0 0 0 0 0.654902 0 0 0 1.000000 0"></feColorMatrix>
        </filter>
        <polygon id="path-2" points="0 0 21.9999766 0 21.9999766 21.9999649 0 21.9999649"></polygon>
    </defs>
    <g id="Symbols" stroke="none" stroke-width="1" fill="none" fill-rule="evenodd">
        <g id="Footer-" transform="translate(-674.000000, -128.000000)">
            <g id="Group-12" transform="translate(595.000000, 119.000000)">
                <g id="Group-8" transform="translate(70.000000, 0.000000)" filter="url(#filter-1)">
                    <g transform="translate(9.000000, 9.000000)">
                        <g id="Group-3">
                            <mask id="mask-3" fill="white">
                                <use xlink:href="#path-2"></use>
                            </mask>
                            <g id="Clip-2"></g>
                            <path d="M20.0481787,15.928784 C20.0481787,18.200284 18.2001787,20.04805 15.9287957,20.04805 L6.07104043,20.04805 C3.79977447,20.04805 1.95189149,18.200284 1.95189149,15.928784 L1.95189149,6.07126277 C1.95189149,3.79999681 3.79977447,1.95199681 6.07104043,1.95199681 L15.9286787,1.95199681 C18.2000617,1.95199681 20.0481787,3.79999681 20.0481787,6.07126277 L20.0481787,15.928784 L20.0481787,15.928784 Z M15.9286787,-3.5106383e-05 L6.07104043,-3.5106383e-05 C2.72352979,-3.5106383e-05 -2.34042553e-05,2.72363511 -2.34042553e-05,6.07126277 L-2.34042553e-05,15.928784 C-2.34042553e-05,19.2765287 2.72352979,21.9999649 6.07104043,21.9999649 L15.9286787,21.9999649 C19.2765404,21.9999649 21.9999766,19.2764117 21.9999766,15.928784 L21.9999766,6.07126277 C21.9999766,2.72363511 19.2765404,-3.5106383e-05 15.9286787,-3.5106383e-05 L15.9286787,-3.5106383e-05 Z" id="Fill-1" fill="#FFFFFF" mask="url(#mask-3)"></path>
                        </g>
                        <path d="M11.5,15.1059618 C9.51165287,15.1059618 7.89377206,13.4883882 7.89377206,11.5 C7.89377206,9.51149829 9.51153933,7.89381116 11.5,7.89381116 C13.4884607,7.89381116 15.1062279,9.51149829 15.1062279,11.5 C15.1062279,13.4883882 13.4883471,15.1059618 11.5,15.1059618 M11.5,6 C8.46723985,6 6,8.46729078 6,11.5001135 C6,14.5328228 8.46723985,17 11.5,17 C14.5327602,17 17,14.5328228 17,11.5001135 C17,8.46729078 14.5327602,6 11.5,6" id="Fill-4" fill="#A8DCD9"></path>
                        <path d="M17.5,4 C17.1058698,4 16.7187296,4.15954055 16.4403613,4.43913506 C16.1607668,4.71725801 16,5.10452093 16,5.5 C16,5.89425278 16.1608895,6.28139307 16.4403613,6.56098757 C16.7186069,6.83911053 17.1058698,7 17.5,7 C17.8954791,7 18.2813931,6.83911053 18.5608649,6.56098757 C18.8404595,6.28139307 19,5.89413015 19,5.5 C19,5.10452093 18.8404595,4.71725801 18.5608649,4.43913506 C18.282742,4.15954055 17.8954791,4 17.5,4" id="Fill-6" fill="#A8DCD9"></path>
                    </g>
                </g>
            </g>
        </g>
    </g>
</svg>