<?xml version="1.0" encoding="UTF-8"?>
<svg width="22px" height="19px" viewBox="0 0 22 19" version="1.1" xmlns="http://www.w3.org/2000/svg" xmlns:xlink="http://www.w3.org/1999/xlink">
    <title>iconmonstr-twitter-1</title>
    <g id="Symbols" stroke="none" stroke-width="1" fill="none" fill-rule="evenodd">
        <g id="Footer-" transform="translate(-604.000000, -130.000000)" fill="#7ECAA7" fill-rule="nonzero">
            <g id="Group-12" transform="translate(595.000000, 119.000000)">
                <g id="iconmonstr-twitter-1" transform="translate(9.000000, 11.000000)">
                    <path d="M22,2.34391667 C21.1905833,2.70325 20.3206667,2.94525 19.4076667,3.05433333 C20.3399167,2.49608333 21.0558333,1.6115 21.39225,0.557333333 C20.5205,1.07433333 19.5543333,1.45016667 18.5258333,1.65275 C17.7035833,0.7755 16.5293333,0.227333333 15.2313333,0.227333333 C12.31725,0.227333333 10.1759167,2.94616667 10.8340833,5.76858333 C7.084,5.58066667 3.75833333,3.784 1.53175,1.05325 C0.34925,3.08183333 0.9185,5.73558333 2.92783333,7.07941667 C2.189,7.05558333 1.49233333,6.853 0.884583333,6.51475 C0.835083333,8.60566667 2.33383333,10.5618333 4.5045,10.99725 C3.86925,11.1695833 3.1735,11.2099167 2.46583333,11.07425 C3.03966667,12.86725 4.70616667,14.1716667 6.6825,14.2083333 C4.785,15.6960833 2.39433333,16.3606667 -1.6283271e-15,16.0783333 C1.99741667,17.3589167 4.37066667,18.106 6.919,18.106 C15.2991667,18.106 20.03375,11.0284167 19.74775,4.6805 C20.6295833,4.04341667 21.395,3.24866667 22,2.34391667 Z" id="Path"></path>
                </g>
            </g>
        </g>
    </g>
</svg>