<?xml version="1.0" encoding="UTF-8"?>
<svg width="309px" height="360px" viewBox="0 0 309 360" version="1.1" xmlns="http://www.w3.org/2000/svg" xmlns:xlink="http://www.w3.org/1999/xlink">
    <title>Group 87</title>
    <defs>
        <polygon id="path-1" points="0.263832482 0.101594171 31.1974482 0.101594171 31.1974482 128.640124 0.263832482 128.640124"></polygon>
        <polygon id="path-3" points="0.326876484 0.283869428 25.4834903 0.283869428 25.4834903 24.2653507 0.326876484 24.2653507"></polygon>
        <polygon id="path-5" points="0 359.792691 308.13394 359.792691 308.13394 0 0 0"></polygon>
    </defs>
    <g id="Chronnect" stroke="none" stroke-width="1" fill="none" fill-rule="evenodd">
        <g id="Conoce" transform="translate(-232.000000, -1230.000000)">
            <g id="Group-87" transform="translate(232.000000, 1230.000000)">
                <path d="M120.200037,227.623207 C131.543767,221.966389 139.484264,210.503427 140.126132,197.124766 C139.484264,210.503046 131.543767,221.966008 120.200037,227.623207" id="Fill-1" fill="#FFFFFF"></path>
                <polygon id="Fill-3" fill="#FFFFFF" points="35.8153547 231.254313 35.8153547 231.254313 100.996758 231.254313 100.996377 231.254313"></polygon>
                <path d="M100.998358,231.254694 L107.290568,231.254694 C107.290949,231.254313 107.29133,231.254313 107.291711,231.254313 L100.996834,231.254313 C100.997596,231.254313 100.997977,231.254313 100.998358,231.254694" id="Fill-5" fill="#FFFFFF"></path>
                <polygon id="Fill-7" fill="#FFFFFF" points="107.292282 231.254313 107.291901 231.254313 171.94724 231.254313"></polygon>
                <path d="M238.722799,102.766142 L171.973486,231.254389 L238.722799,102.766142 L240.480031,102.766142 C240.477365,102.766142 240.475079,102.766142 240.472794,102.766142 L238.722799,102.766142 Z" id="Fill-9" fill="#FFFFFF"></path>
                <path d="M68.1628321,197.124576 C68.805081,210.503237 76.7448159,221.966579 88.088927,227.623017 C76.7448159,221.966198 68.805081,210.502856 68.1628321,197.124576" id="Fill-11" fill="#FFFFFF"></path>
                <path d="M102.887392,231.364402 C102.629883,231.355641 102.372755,231.342689 102.11677,231.327833 C102.372755,231.342689 102.629502,231.355641 102.887392,231.364402" id="Fill-13" fill="#FFFFFF"></path>
                <path d="M204.456536,66.7427231 L204.456536,66.7427231 C204.456536,66.3145572 204.464155,65.8882959 204.479011,65.4639393 C204.464155,65.8882959 204.456536,66.3145572 204.456536,66.7427231" id="Fill-15" fill="#FFFFFF"></path>
                <path d="M298.821103,192.290758 C298.052385,197.307613 296.848264,202.279518 295.247975,207.123812 C296.848645,202.279899 298.052766,197.307994 298.821103,192.290758" id="Fill-17" fill="#FFFFFF"></path>
                <path d="M171.947049,231.304901 L172.002284,231.304901 L171.947049,231.304901 Z" id="Fill-19" fill="#FFFFFF"></path>
                <path d="M299.958485,176.049137 C299.976008,180.75782 299.720023,185.30994 299.191291,189.613693 C299.720023,185.30994 299.976008,180.75782 299.958485,176.049137" id="Fill-21" fill="#FFFFFF"></path>
                <path d="M105.732638,231.356974 C105.672832,231.35964 105.612264,231.358878 105.552458,231.361545 C105.612264,231.358878 105.672832,231.35964 105.732638,231.356974" id="Fill-23" fill="#FFFFFF"></path>
                <path d="M104.144577,159.345867 C124.039817,159.345867 140.168034,175.474085 140.168034,195.369324 C140.168034,175.474085 124.039817,159.345867 104.144577,159.345867 C84.2493377,159.345867 68.1207393,175.474085 68.1207393,195.369324 C68.1207393,175.474085 84.2493377,159.345867 104.144577,159.345867" id="Fill-25" fill="#FFFFFF"></path>
                <polygon id="Fill-27" fill="#FFFFFF" points="135.397603 59.7583619 135.397603 59.7583619 93.5337193 17.8944781"></polygon>
                <path d="M240.479955,102.766332 L277.200515,102.766332 C274.036125,98.5749539 270.537659,94.7610775 266.703213,91.4389824 C260.134066,98.4119156 250.816124,102.766332 240.479955,102.766332" id="Fill-29" fill="#F4C0D9"></path>
                <path d="M172.002093,280.954585 C180.543699,276.623405 189.330623,272.870859 198.544952,270.162062 C217.80518,264.49991 238.608939,263.495777 256.503912,254.39649 C267.107113,249.004799 276.03003,240.932501 282.977441,231.304863 L172.002093,231.304863 L172.002093,280.954585 Z" id="Fill-31" fill="#552971"></path>
                <path d="M35.8153547,231.254313 L35.8153547,231.254313 L100.996377,231.254313 C96.9672747,230.905381 93.127495,229.893629 89.5871267,228.327624 C89.0816319,228.104018 88.5818511,227.868983 88.088927,227.623283 C76.7448159,221.966465 68.805081,210.503123 68.1628321,197.124462 C68.1350242,196.543162 68.1209297,195.958052 68.1209297,195.369515 C68.1209297,175.473894 84.2491473,159.345677 104.144387,159.345677 C124.040007,159.345677 140.167844,175.473894 140.167844,195.369515 C140.167844,195.958052 140.153749,196.543162 140.125941,197.124462 C139.484073,210.503123 131.543958,221.966465 120.199847,227.623283 C119.706922,227.868983 119.207142,228.104018 118.701647,228.327624 C115.161278,229.893629 111.321499,230.905381 107.292397,231.254313 L171.946973,231.254313 L171.946973,102.766066 L238.722951,102.766066 L240.472565,102.766066 C220.580754,102.762257 204.456346,86.6355627 204.456346,66.7429898 L204.456346,66.7426088 C204.456346,66.3148238 204.463964,65.8885626 204.478821,65.463825 C204.499772,64.8600502 204.540912,64.2612274 204.591576,63.6650711 C204.789279,61.3292051 205.204493,59.0554308 205.826934,56.8677468 C194.652718,44.3987479 184.873469,31.1023679 170.076985,22.022127 C148.26757,8.63927576 119.922148,6.55215741 96.3882603,16.5965335 C95.4264107,17.0067957 94.4771319,17.4444849 93.533567,17.8939829 L93.5339479,17.8939829 C93.5339479,17.8939829 93.533567,17.8939829 93.533567,17.8943638 L135.397451,59.7582476 L135.397451,119.516724 L48.490437,119.516724 C49.9052129,136.27081 51.5394049,153.04661 48.0634139,169.349293 C44.2240151,187.354356 34.4215299,203.433052 24.7809401,219.117866 C15.1411122,234.801919 5.34015076,250.882139 1.50570409,268.888344 C-2.32912351,286.894549 0.892786873,307.512414 14.2748762,320.155498 C20.2623422,325.812316 27.7872438,329.431156 35.8153547,331.437518 L35.8153547,231.254313 Z" id="Fill-33" fill="#EBE4D3"></path>
                <g id="Group-37" transform="translate(276.936492, 102.664586)">
                    <mask id="mask-2" fill="white">
                        <use xlink:href="#path-1"></use>
                    </mask>
                    <g id="Clip-36"></g>
                    <path d="M9.54063357,15.2260598 C10.4362012,17.0248137 11.2864382,18.8567086 12.0921062,20.7164114 C19.3423569,37.4548796 22.9581495,56.4339812 23.0221458,73.3846277 C23.0396686,78.09331 22.7836833,82.6450488 22.2549517,86.9491828 C22.149053,87.8100858 22.0324883,88.6610846 21.9048766,89.5010364 C21.8987817,89.5429388 21.8911631,89.5844602 21.8846873,89.6263626 C21.1163504,94.6432176 19.912229,99.6151228 18.3115589,104.459416 C18.289465,104.525698 18.2696566,104.592742 18.2471817,104.658643 L31.1976767,128.640124 L31.1976767,0.101594171 L0.263832482,0.101594171 C3.76306029,4.73599494 6.8543115,9.83017886 9.54063357,15.2260598" id="Fill-35" fill="#5CC5C8" mask="url(#mask-2)"></path>
                </g>
                <polygon id="Fill-38" fill="#A6D9D6" points="238.722799 102.766142 171.947201 102.766142 171.947201 231.254389 171.973486 231.254389"></polygon>
                <path d="M295.183826,207.323381 L295.183826,207.323381 C295.20592,207.257099 295.226109,207.190056 295.247822,207.124155 C295.226109,207.190056 295.20592,207.257099 295.183826,207.323381" id="Fill-40" fill="#A7358E"></path>
                <path d="M298.821103,192.290758 C298.827579,192.249237 298.835198,192.207334 298.841673,192.165813 C298.969285,191.325861 299.085469,190.474481 299.191368,189.613959 C299.085469,190.474481 298.969285,191.32548 298.841673,192.165813 C298.835198,192.207334 298.827579,192.249237 298.821103,192.290758" id="Fill-42" fill="#A7358E"></path>
                <g id="Group-46" transform="translate(282.650450, 207.039550)">
                    <mask id="mask-4" fill="white">
                        <use xlink:href="#path-3"></use>
                    </mask>
                    <g id="Clip-45"></g>
                    <path d="M0.326876484,24.2653507 L25.4835284,24.2653507 L12.5334142,0.283869428 C11.5536609,3.22770053 10.4211545,6.1212488 9.14808466,8.94813423 C7.06515655,13.5749164 4.59748861,18.018471 1.76831759,22.196136 C1.2967256,22.892477 0.818657792,23.5842469 0.326876484,24.2653507" id="Fill-44" fill="#E66672" mask="url(#mask-4)"></path>
                </g>
                <path d="M171.973448,231.254313 L172.002017,231.254313 L172.002017,231.254694 L172.002017,231.304977 L282.977365,231.304977 C283.468765,230.623873 283.947214,229.932103 284.418806,229.235762 C287.247977,225.057335 289.715645,220.613781 291.798573,215.98776 C293.071262,213.160494 294.204149,210.267327 295.183902,207.323496 L238.722761,102.766447 L171.973448,231.254313 Z" id="Fill-47" fill="#965EA5"></path>
                <polygon id="Fill-49" fill="#E376AE" points="172.002093 231.304901 172.002093 231.304901 282.977441 231.304901"></polygon>
                <path d="M252.291925,82.1778375 C257.076793,84.3057154 261.490254,87.1185064 265.545641,90.4691713 C265.933428,90.7895339 266.321977,91.1087537 266.703289,91.4390205 C272.77875,84.9898667 276.503488,76.3019842 276.503488,66.7425326 C276.503488,46.8472931 260.37489,30.7194566 240.47965,30.7194566 C224.008595,30.7194566 210.119868,41.7736795 205.826781,56.8680516 C208.240357,59.5612304 210.717929,62.2166971 213.326542,64.7818832 C225.179195,76.4372145 238.099596,75.8658187 252.291925,82.1778375 Z" id="Fill-51" fill="#EC757E"></path>
                <path d="M204.456536,66.7429136 C204.456536,86.6381531 220.584754,102.766371 240.479993,102.766371 L240.472756,102.766371 C240.475041,102.766371 240.477708,102.766371 240.479993,102.766371 C250.816162,102.766371 260.134104,98.4119537 266.703251,91.4390205 C266.321939,91.1087537 265.93339,90.7895339 265.545603,90.4691713 C261.489835,87.1185064 257.076374,84.3057154 252.291506,82.1782185 C238.099177,75.8658187 225.178776,76.4375954 213.326123,64.7818832 C210.717891,62.2166971 208.2407,59.5612304 205.827124,56.8684325 C205.204684,59.0553546 204.78947,61.3291289 204.591386,63.6649949 C204.541103,64.2611512 204.499962,64.859974 204.479011,65.4641298 C204.464155,65.8884864 204.456536,66.3147477 204.456536,66.7429136" id="Fill-53" fill="#EC757E"></path>
                <path d="M108.715744,317.701734 C90.9868559,326.760262 72.1509842,333.487495 52.4290681,333.429213 C46.8735774,333.412833 41.2300916,332.791535 35.8155451,331.438089 L35.8155451,359.792653 L172.002017,359.792653 L172.002017,280.95489 C161.475383,286.293631 151.323204,292.514989 141.211403,298.764916 C136.615095,301.605896 132.027549,304.45259 127.416766,307.225002 C121.334067,310.882316 115.095949,314.44135 108.715744,317.701734" id="Fill-61" fill="#A6D9D6"></path>
                <path d="M172.002093,231.304901 L171.946859,231.304901 L171.946859,231.254237 L107.291901,231.254237 C107.29152,231.254237 107.290759,231.254237 107.290378,231.254237 L107.291901,231.254237 C106.774979,231.299187 106.255389,231.33347 105.732753,231.357088 C105.672947,231.359755 105.612379,231.358993 105.552573,231.361278 C105.085171,231.379944 104.616626,231.392515 104.144653,231.392515 C103.723344,231.392515 103.305083,231.379182 102.887202,231.364326 C102.629693,231.355564 102.372946,231.342994 102.116579,231.328137 C101.742506,231.307186 101.368051,231.286616 100.997024,231.254237 L100.998167,231.254237 C100.998167,231.254237 100.997405,231.254237 100.997024,231.254237 L35.8152404,231.254237 L35.8152404,331.437441 C41.2301678,332.791649 46.8732726,333.412947 52.4287634,333.429698 C72.1510604,333.487228 90.9869321,326.759995 108.71582,317.701848 C115.096025,314.441464 121.334143,310.882049 127.416842,307.224735 C132.027625,304.452323 136.615171,301.60601 141.211479,298.76503 C151.322899,292.515103 161.475459,286.293365 172.002093,280.955004 L172.002093,280.954623 L172.002093,231.304901 Z" id="Fill-63" fill="#49B797"></path>
                <path d="M108.715744,317.701734 C115.095949,314.44135 121.334067,310.882316 127.416766,307.225002 C132.027549,304.45259 136.615095,301.605896 141.211403,298.764916 C136.615095,301.605896 132.027549,304.45259 127.416766,307.224621 C121.334067,310.882316 115.095949,314.44135 108.715744,317.701734" id="Fill-65" fill="#F4C0D9"></path>
                <polygon id="Fill-67" fill="#552971" points="171.947049 231.254313 171.947049 231.254313 171.947049 231.304977 171.973333 231.254313"></polygon>
                <polygon id="Fill-69" fill="#552971" points="171.947049 231.304901 172.002284 231.304901 172.002284 231.254618 171.973333 231.254618 171.973333 231.254237"></polygon>
                <mask id="mask-6" fill="white">
                    <use xlink:href="#path-5"></use>
                </mask>
                <g id="Clip-72"></g>
                <path d="M172.001941,231.254542 L171.973371,231.254161 L172.001941,231.254542 Z" id="Fill-71" fill="#552971" mask="url(#mask-6)"></path>
                <path d="M118.701533,228.327624 C119.207408,228.104018 119.706808,227.868983 120.200113,227.623283 C131.543843,221.966084 139.483959,210.502742 140.125827,197.124462 C140.154016,196.543162 140.16811,195.958052 140.16811,195.369515 C140.16811,175.473894 124.039893,159.345677 104.144653,159.345677 C84.2494139,159.345677 68.1208155,175.473894 68.1208155,195.369515 C68.1208155,195.958052 68.1349099,196.543162 68.1627178,197.124462 C68.8049667,210.502742 76.7450826,221.966084 88.0888127,227.623283 C88.5817368,227.868983 89.0815176,228.104018 89.5870124,228.327624 C93.1273807,229.893629 96.9671604,230.905381 100.997024,231.254313 L107.291901,231.254313 C111.321385,230.905381 115.161164,229.893629 118.701533,228.327624 Z" id="Fill-73" fill="#E56672" mask="url(#mask-6)"></path>
                <path d="M254.580717,99.8390899 C255.086593,99.6154836 255.585993,99.3804495 256.079298,99.1347493 C267.423028,93.4775501 275.363144,82.0142078 276.005012,68.6359277 C276.033201,68.0546277 276.047295,67.4695185 276.047295,66.8809808 C276.047295,46.9853604 259.919077,30.8571429 240.023838,30.8571429 C220.128598,30.8571429 204,46.9853604 204,66.8809808 C204,67.4695185 204.014094,68.0546277 204.041902,68.6359277 C204.684151,82.0142078 212.624267,93.4775501 223.967997,99.1347493 C224.460921,99.3804495 224.960702,99.6154836 225.466197,99.8390899 C229.006565,101.405095 232.846345,102.416847 236.876209,102.765779 L243.171086,102.765779 C247.200569,102.416847 251.040349,101.405095 254.580717,99.8390899 Z" id="Fill-73" fill="#EC757E" mask="url(#mask-6)"></path>
                <path d="M107.292282,231.254313 C111.321765,230.905381 115.161545,229.893629 118.701533,228.327624 C115.161164,229.893629 111.321385,230.905381 107.291901,231.254313 L107.292282,231.254313 Z" id="Fill-74" fill="#A7358E" mask="url(#mask-6)"></path>
                <path d="M140.167996,195.369477 L140.167996,195.369477 C140.167996,195.958014 140.153902,196.543124 140.126094,197.124424 C140.153902,196.543124 140.167996,195.958014 140.167996,195.369477" id="Fill-75" fill="#A7358E" mask="url(#mask-6)"></path>
                <path d="M89.5872029,228.327776 C93.1271903,229.893401 96.9673509,230.905533 100.996453,231.254465 L100.996834,231.254465 C96.9673509,230.905533 93.1275712,229.893401 89.5872029,228.327776" id="Fill-76" fill="#A7358E" mask="url(#mask-6)"></path>
                <path d="M68.1207774,195.369477 C68.1207774,195.958014 68.1348718,196.543124 68.1626797,197.124424 C68.1348718,196.543124 68.1207774,195.958014 68.1207774,195.369477" id="Fill-77" fill="#A7358E" mask="url(#mask-6)"></path>
                <path d="M102.116617,231.327947 C102.372984,231.342803 102.629731,231.355374 102.88724,231.364516 C103.305121,231.379373 103.723001,231.392705 104.144311,231.392705 C104.616283,231.392705 105.085209,231.380134 105.552611,231.361469 C105.612417,231.358802 105.672985,231.359564 105.732791,231.356898 C106.254666,231.334042 106.774255,231.299377 107.290416,231.254808 L100.998205,231.254808 C101.368851,231.286806 101.742925,231.306996 102.116617,231.327947" id="Fill-78" fill="#A7358E" mask="url(#mask-6)"></path>
                <path d="M107.291901,231.254694 L107.290378,231.254694 C106.774217,231.299263 106.254628,231.333928 105.732753,231.357164 C106.255389,231.333547 106.774979,231.299263 107.291901,231.254694" id="Fill-79" fill="#A7358E" mask="url(#mask-6)"></path>
                <path d="M102.887392,231.364402 C103.305273,231.379258 103.723154,231.392591 104.144463,231.392591 C104.616436,231.392591 105.085361,231.38002 105.552763,231.361355 C105.085361,231.38002 104.616436,231.392591 104.144082,231.392591 C103.723154,231.392591 103.304892,231.379258 102.887392,231.364402" id="Fill-80" fill="#A7358E" mask="url(#mask-6)"></path>
                <path d="M100.996872,231.254694 C101.368279,231.286692 101.742734,231.307262 102.116427,231.327833 C101.742734,231.307262 101.369041,231.286692 100.998396,231.254694 L100.996872,231.254694 Z" id="Fill-81" fill="#A7358E" mask="url(#mask-6)"></path>
                <path d="M135.397603,119.516838 L135.397603,59.7583619 L93.5337193,17.8944781 C77.623775,25.4776621 64.4348174,38.5256754 56.3427103,54.1712539 C55.6391316,55.5319377 54.9740269,56.912049 54.3489199,58.3096831 C52.1616168,63.2023548 50.4653332,68.3125378 49.3271128,73.5590939 C46.0648238,88.5993739 47.1843786,104.048773 48.4905893,119.516838 L135.397603,119.516838 Z" id="Fill-82" fill="#F1AE3F" mask="url(#mask-6)"></path>
                <path d="M135.397603,119.516838 L48.4905893,119.516838 L135.397603,119.516838 Z" id="Fill-83" fill="#552971" mask="url(#mask-6)"></path>
                <path d="M56.3428245,54.171292 C55.6388649,55.5319758 54.9741412,56.9120871 54.3490342,58.3097212 C54.9741412,56.9120871 55.6388649,55.5319758 56.3428245,54.171292" id="Fill-84" fill="#552971" mask="url(#mask-6)"></path>
                <path d="M49.3272271,73.559132 C50.4650665,68.3125759 52.1613502,63.2023929 54.3490342,58.3097212 C54.9741412,56.9120871 55.6388649,55.5319758 56.3428245,54.171292 C64.4349317,38.5257134 77.6238893,25.4773192 93.5334527,17.8941353 L93.5334527,17.8945162 L93.5334527,17.8941353 C93.5334527,17.8941353 93.5334527,17.8941353 93.5334527,17.8941353 L75.6388603,-7.61861051e-05 L15.8803841,59.7584 L15.8803841,119.516876 L48.4907036,119.516876 C47.1844928,104.048811 46.064938,88.599412 49.3272271,73.559132" id="Fill-85" fill="#EB7E39" mask="url(#mask-6)"></path>
                <path d="M295.248013,207.124002 C296.848302,202.279328 298.052423,197.307423 298.821141,192.290948 C298.827617,192.249046 298.835236,192.207525 298.841711,192.165622 C298.969323,191.32529 299.085507,190.474672 299.191406,189.613769 C299.719756,185.309635 299.976123,180.757896 299.9586,176.049214 C299.894603,159.098567 296.278811,140.119466 289.02856,123.380997 C288.222892,121.521295 287.372655,119.6894 286.477088,117.890646 C283.790765,112.494765 280.699514,107.400581 277.200667,102.76618 L240.480108,102.76618 L238.722875,102.76618 L295.184017,207.323229 C295.206111,207.257328 295.225919,207.190284 295.248013,207.124002" id="Fill-86" fill="#F4B03F" mask="url(#mask-6)"></path>
            </g>
        </g>
    </g>
</svg>