<?xml version="1.0" encoding="UTF-8"?>
<svg width="1656px" height="867px" viewBox="0 0 1656 867" version="1.1" xmlns="http://www.w3.org/2000/svg" xmlns:xlink="http://www.w3.org/1999/xlink">
    <title>Group 20</title>
    <g id="Chronnect" stroke="none" stroke-width="1" fill="none" fill-rule="evenodd">
        <g id="Group-20" transform="translate(0.109015, 0.000000)" fill="#EEAB5A">
            <path d="M959.270841,443.79813 C848.451266,434.593994 667.981803,397.343374 626.592472,546.732528 C606.200442,620.338176 656.608941,682.709014 720.695325,728 C722.70208,727.942622 724.710084,727.885245 726.706855,727.787952 C746.098003,726.85494 765.036134,724.113283 783.178051,719.32349 C784.982634,718.847005 786.767248,718.324369 788.554359,717.806722 C807.247885,712.400742 825.047856,704.778235 841.539941,694.593688 C890.457101,664.388056 915.738725,623.724709 976.04497,611.80012 C981.972886,610.630113 987.899554,609.58983 993.826221,608.625635 C996.193644,608.238959 998.55857,607.87224 1000.92599,607.513006 C1005.90045,606.758364 1010.87491,606.04239 1015.84312,605.380051 C1012.09543,600.864673 1012.09543,600.864673 1015.84562,605.380051 C1077.2139,597.226177 1138.18282,595.058297 1196.7993,568.774307 C1283.19461,530.034362 1348.83598,447.784634 1367.44714,354.951211 C1367.64433,353.969553 1367.81655,352.984153 1368,352 C1258.0615,405.906376 1139.8077,443.457605 1019.33498,445.655422 C999.363519,446.019646 979.3359,445.464578 959.270841,443.79813" id="Fill-1"></path>
            <path d="M1050.99188,831.169545 C981.7746,827.682451 913.242121,817.183832 848.07502,794.170503 C810.366065,780.854332 762.343934,758.510545 720.229302,728.799306 C700.70811,729.366799 680.776537,728.168343 660.780101,725.420483 C653.429406,724.407458 646.072474,723.192825 638.724273,721.780315 C583.946437,711.26054 529.72243,689.926044 483.291931,663 C483.044953,663.363395 482.810449,663.731767 482.562225,664.093917 C377.326163,817.547227 167.333026,856.82993 13.5284887,751.836281 C9.25877376,748.921657 5.09258974,745.913696 1,742.842265 L1,857.043985 C1,862.539705 5.46555053,866.997511 10.9738944,867 L1645.02611,867 C1650.53445,866.997511 1655,862.539705 1655,857.043985 L1655,680.26622 C1626.95559,702.042514 1597.73867,722.152421 1566.64696,739.404951 C1448.84499,804.772415 1311.29107,825.218337 1176.61854,831.030161 C1134.8881,832.829711 1092.81463,833.278976 1050.99188,831.169545 Z" id="Fill-3"></path>
            <path d="M366.277015,176.983934 C371.360049,164.351827 376.159512,151.63383 380.373096,138.747786 C391.398621,105.02026 398.347974,70.4251165 403.018769,35.3768702 L403.01752,35.3756255 C404.58153,23.6310522 405.881957,11.8329532 407,0 L9.99367722,0 C4.47466897,0 0,4.45758523 0,9.95830267 L0,203 C26.1059833,183.40455 54.6779065,167.906941 84.7051589,156.715054 C174.653251,123.190428 277.620606,128.244267 366.277015,176.983934" id="Fill-6"></path>
            <path d="M1163,0 C1209.53085,26.5030105 1255.11133,54.1498207 1291.58469,92.7536839 C1305.18425,107.148366 1317.20235,122.963453 1327.52923,139.823908 C1330.47888,144.640825 1333.29258,149.542467 1335.96535,154.525098 C1340.76835,163.469911 1345.11487,172.665163 1348.99743,182.058525 C1369.95677,232.776947 1377.28162,289.251746 1368.7108,343.536131 C1368.2643,346.364481 1367.7729,349.185356 1367.24658,352 C1399.99204,335.951917 1432.00039,318.457264 1463.10826,300.006952 C1529.06937,260.887257 1592.24671,217.415393 1655,173.27818 L1655,9.96775347 C1655,4.46181565 1650.5325,0 1645.02233,0 L1163,0 Z" id="Fill-8"></path>
            <path d="M394.723429,194.193078 C385.655967,187.949684 376.386068,182.233654 366.960925,177 C344.361198,233.699167 316.04106,288.646284 308.152207,348.933278 C302.43552,392.645786 308.342225,436.811926 323.079179,478.176287 C324.121173,481.103034 325.222781,484.011036 326.354195,486.906542 C333.136473,504.29207 341.474911,521.122741 351.170799,537.156117 C357.093649,546.953597 363.510794,556.463651 370.398637,565.608799 C370.552638,565.813746 370.714092,566.014945 370.870577,566.218642 C382.230675,581.23478 394.80043,595.299913 408.415905,608.126614 C408.52768,608.234086 408.639456,608.342808 408.752473,608.45028 C411.035173,610.595978 413.373761,612.72793 415.762027,614.848635 C426.221712,624.128748 437.688618,633.165174 449.98266,641.829195 C451.738775,643.067627 453.516002,644.291062 455.299439,645.519496 C464.150802,651.562942 473.426911,657.392692 483.012266,663 C586.863952,509.008357 547.49917,299.373525 394.723429,194.193078" id="Fill-14"></path>
        </g>
    </g>
</svg>