<?xml version="1.0" encoding="UTF-8"?>
<svg width="207px" height="209px" viewBox="0 0 207 209" version="1.1" xmlns="http://www.w3.org/2000/svg" xmlns:xlink="http://www.w3.org/1999/xlink">
    <title>Fill 1</title>
    <g id="Chronnect" stroke="none" stroke-width="1" fill="none" fill-rule="evenodd" fill-opacity="0.4">
        <g id="About" transform="translate(-291.000000, -3458.000000)" fill="#5FC6CB">
            <g id="Colaborador" transform="translate(115.000000, 3458.000000)">
                <path d="M191.901903,62.3630181 C179.178237,86.4040911 170.660708,115.157757 179.868848,141.221807 C182.490044,148.641648 186.67445,155.383999 191.901903,161.269145 C193.585988,163.165983 195.379402,164.97398 197.263132,166.685677 C199.147541,168.398052 201.122266,170.015484 203.171009,171.531191 C205.629908,173.350039 208.195421,175.022402 210.837668,176.538109 C231.302011,188.277884 249.568217,187.547496 271.710533,188.511852 C279.421332,188.847545 287.119228,189.509438 294.775022,190.49346 C302.430816,191.478161 310.045866,192.784991 317.590972,194.411239 C321.627342,195.280651 325.893237,196.31418 330.330256,197.430446 C346.542965,201.509629 365.040053,206.679307 383,209 L383,5.42534793 C383,2.42919953 380.567584,0 377.567469,0 L251.993842,0 C243.055292,5.00081445 234.623325,10.9103747 226.885364,17.6106794 C215.895354,27.1260615 206.305579,38.237174 198.652502,50.6042546 C196.324662,54.3646989 194.054543,58.297398 191.901903,62.3630181 Z" id="Fill-1"></path>
            </g>
        </g>
    </g>
</svg>