<?xml version="1.0" encoding="UTF-8"?>
<svg width="207px" height="210px" viewBox="0 0 207 210" version="1.1" xmlns="http://www.w3.org/2000/svg" xmlns:xlink="http://www.w3.org/1999/xlink">
    <title>Fill 1</title>
    <g id="Chronnect" stroke="none" stroke-width="1" fill="none" fill-rule="evenodd" fill-opacity="0.4">
        <g id="About" transform="translate(-528.000000, -3458.000000)" fill="#5FC6CB">
            <g id="Colaborador" transform="translate(528.000000, 3458.000000)">
                <path d="M3.00663958,109.609765 C-4.65151821,137.617904 1.78404277,169.687727 28.5092332,189.352675 C40.4681625,198.150916 55.4968978,203.7798 71.5298818,206.901164 C82.3445761,209.007551 93.6157472,209.973942 104.711175,210 C140.367332,210.081187 174.571894,201.514026 207,189.43859 L207,4.74011235 C207,2.12179279 204.275595,0 200.913644,0 L73.6669537,0 C66.2073632,10.9739526 57.8211251,21.6421679 49.4927073,32.194843 C30.23928,56.5904237 10.6647974,81.6022191 3.00663958,109.609765" id="Fill-1" transform="translate(103.500000, 105.000000) scale(-1, 1) translate(-103.500000, -105.000000) "></path>
            </g>
        </g>
    </g>
</svg>