<?xml version="1.0" encoding="UTF-8"?>
<svg width="206px" height="178px" viewBox="0 0 206 178" version="1.1" xmlns="http://www.w3.org/2000/svg" xmlns:xlink="http://www.w3.org/1999/xlink">
    <title>Group 2</title>
    <g id="Chronnect" stroke="none" stroke-width="1" fill="none" fill-rule="evenodd">
        <g id="Home-Alt-Vive" transform="translate(-1119.000000, -151.000000)" fill="#307B9E">
            <g id="Group-2" transform="translate(1119.000000, 151.000000)">
                <path d="M204.843351,93.8357285 C201.102152,71.7204682 190.76748,50.4628018 176.608934,34.3441786 C154.990221,9.73246092 122.835707,-3.07468381 91.9650812,0.63030595 C61.0948027,4.33529571 32.1837039,24.4714932 15.8592917,53.6369731 C4.5967881,73.7585961 -4.82811619,100.190975 2.70847247,123.777876 C6.43647162,135.444374 14.6744049,144.95193 24.3904071,151.113873 C38.7181236,160.200686 51.5062861,159.634966 67.0081208,160.381717 C77.8061877,160.901796 88.5646541,162.430967 99.1299815,164.947752 C121.600451,170.300811 154.217317,183.674443 176.585312,173.448518 C185.665276,169.297472 193.352277,161.46675 197.679493,151.724084 C198.514229,149.843974 199.291995,147.859542 200.010014,145.792265 C205.484948,130.029183 207.486507,109.459202 204.843351,93.8357285 Z" id="Fill-1"></path>
            </g>
        </g>
    </g>
</svg>