<?xml version="1.0" encoding="UTF-8"?>
<svg width="1440px" height="662px" viewBox="0 0 1440 662" version="1.1" xmlns="http://www.w3.org/2000/svg" xmlns:xlink="http://www.w3.org/1999/xlink">
    <title>Group 77 Copy</title>
    <defs>
        <rect id="path-1" x="0" y="0" width="1440" height="662"></rect>
    </defs>
    <g id="Chronnect" stroke="none" stroke-width="1" fill="none" fill-rule="evenodd">
        <g id="Group-77-Copy">
            <mask id="mask-2" fill="white">
                <use xlink:href="#path-1"></use>
            </mask>
            <g id="Mask"></g>
            <g id="Group-77" mask="url(#mask-2)" fill="#F1EBDD">
                <g transform="translate(0.000000, -72.000000)">
                    <path d="M765.094002,1960.93348 C824.948058,1823.39202 953.093757,1715.24241 1102.42363,1676.23811 C1213.46864,1647.23349 1334.41874,1656.94937 1440.00077,1700.6774 L1440.00077,1539.21479 C1254.27267,1539.21479 1103.71072,1388.65283 1103.71072,1202.92584 C1103.71072,1156.42011 1113.15377,1112.11893 1130.22256,1071.83523 C1129.17198,1071.90784 1128.12031,1071.98154 1127.07194,1072.05085 C1029.52156,1078.593 930.52349,1066.94209 837.827752,1035.52391 C766.001565,1011.18032 747.822802,961.845195 751.887584,904.908541 C758.779563,808.385638 797.205231,709.06304 847.87145,620.335279 C811.693238,611.701879 777.184941,601.616379 748.669861,595.638564 C636.124345,572.046325 537.278081,602.221421 435.181091,649.755722 C407.103841,662.82683 378.57776,676.045348 349.513742,687.260626 C355.048226,696.616776 360.463902,705.801314 365.775071,714.689931 C373.187386,727.094393 380.402787,738.931215 387.470778,749.890176 C400.685995,770.376898 414.768073,790.303682 429.664208,809.602322 C444.560342,828.900963 460.269433,847.570359 476.740877,865.543407 C509.362542,901.140779 539.665247,930.81974 561.712978,969.421421 C637.392733,970.949427 714.435484,996.62851 762.655132,1038.69873 C865.706989,1128.60798 882.386347,1303.31331 886.638142,1431.69002 C891.540083,1579.7042 867.836736,1776.9182 717.41119,1847.5442 C675.892107,1867.03756 628.768134,1875.94927 581.513253,1874.8822 C577.987508,1949.8293 554.323765,2025.31325 494.512611,2068.74756 C346.252015,2176.40874 140.739044,2127.18252 0.000770053476,2023.86225 L0.000770053476,2216.65393 C0.000770053476,2221.51407 3.94014362,2225.45455 8.80138121,2225.45455 L730.130273,2225.45455 C705.049632,2139.21516 730.280984,2040.92663 765.094002,1960.93348" id="Fill-1" fill-opacity="0.3"></path>
                    <path d="M30.0044736,475.49405 C33.2562995,464.83651 37.4189885,454.160269 42.5673461,443.548932 C104.39604,316.097381 278.92316,219.475471 390.846032,181.362225 C531.571105,133.439597 684.664336,137.455976 825.006582,184.682255 C929.780058,219.937503 1017.51115,289.226915 1071.04307,387.043508 C1076.00331,396.105937 1080.48392,405.523691 1084.37929,415.190063 C1153.41789,424.94994 1213.25104,484.983309 1253.40053,538.096098 C1321.92539,628.745693 1402.7513,749.452675 1415.27897,867.545876 C1423.44374,866.951835 1431.68441,866.638313 1440.00099,866.638313 L1440.00099,428.496587 C1412.54308,442.992293 1382.69031,451.120758 1352.3722,449.71596 C1291.09245,446.878863 1238.28878,401.417106 1209.34357,347.33515 C1157.8545,251.12907 1175.57343,129.377015 1083.27042,54.1174882 C1061.3943,36.2808495 1034.33022,20.0855248 1012.31989,0.000330022918 L8.80160122,0.000330022918 C3.94036364,0.000330022918 0.000990068755,3.94080367 0.000990068755,8.80094118 L0.000990068755,488.283539 C3.45412987,486.604822 6.9061696,484.983309 10.3505088,483.448703 C16.9454668,480.510399 23.5063224,477.857015 30.0044736,475.49405" id="Fill-6" fill-opacity="0.3"></path>
                    <path d="M331.510332,1337.07839 C339.966619,1335.08285 348.531814,1332.864 357.134411,1330.46033 C357.064006,1329.46036 357.003502,1328.46149 356.922096,1327.46262 C354.174105,1294.16111 344.238215,1261.92777 337.979881,1229.10479 C329.526894,1184.77392 327.952684,1138.08007 342.206374,1095.2618 C346.056642,1083.6912 350.92668,1072.99845 356.69218,1063.15057 C396.314732,995.47057 478.183517,967.734344 561.713418,969.420761 C539.665687,930.81908 509.362982,901.141219 476.741317,865.542747 C460.269873,847.569699 444.560782,828.901403 429.664648,809.602762 C414.768513,790.304122 400.686435,770.377338 387.471218,749.889516 C380.402127,738.931655 373.187826,727.094833 365.774411,714.689271 C360.463242,705.800654 355.047566,696.617216 349.513082,687.261066 C304.500156,704.630173 258.19134,717.183144 210.226909,716.849821 C75.7403697,715.915856 -6.99967609,596.770982 30.0046937,475.49416 C23.5065424,477.857125 16.9456868,480.509409 10.3507288,483.448813 C6.90638961,484.983419 3.45434989,486.604932 0.000110007639,488.283649 L0.000110007639,1290.50336 C59.6715539,1323.37474 126.690408,1342.966 194.68173,1347.80854 C240.504312,1351.07246 286.764724,1347.64353 331.510332,1337.07839" id="Fill-11"></path>
                    <path d="M1209.34335,347.33515 C1238.28856,401.417106 1291.09333,446.878863 1352.37308,449.71596 C1382.69009,451.120758 1412.54286,442.992293 1440.00077,428.496587 L1440.00077,8.80094118 C1440.00077,3.94080367 1436.0603,0.000330022918 1431.20016,0.000330022918 L1012.31967,0.000330022918 C1034.33,20.0855248 1061.39408,36.2808495 1083.2702,54.1174882 C1175.57431,129.377015 1157.85428,251.12907 1209.34335,347.33515" id="Fill-17"></path>
                    <path d="M1032.38781,417.835636 C1050.16505,413.405629 1067.54516,412.810487 1084.37962,415.189953 C1080.48425,405.523581 1076.00254,396.105827 1071.0434,387.043398 C1017.51148,289.226805 929.780388,219.937393 825.005812,184.682145 C684.664666,137.455866 531.571435,133.439487 390.845262,181.362115 C278.92349,219.476461 104.39637,316.097271 42.5676761,443.548822 C37.4193186,454.161259 33.2566295,464.8364 30.0048037,475.49394 C31.6472177,474.896599 33.2874316,474.304758 34.9188449,473.745919 C76.8680581,459.400923 124.010732,461.299655 164.966576,478.270533 C198.186683,492.034689 227.556523,516.738005 254.02106,546.792092 C290.577699,588.307875 321.582252,640.033467 349.513192,687.260846 C378.57831,676.045568 407.104391,662.82705 435.180541,649.754842 C537.278631,602.220541 636.123795,572.046545 748.670411,595.638784 C777.185491,601.616599 811.693788,611.700999 847.872,620.335499 C872.558814,577.100296 900.15093,536.382069 928.417393,499.728623 C955.890701,464.10815 988.736782,428.712092 1032.38781,417.835636" id="Fill-47"></path>
                    <path d="M164.966906,478.269983 C124.011062,461.299105 76.8683881,459.401473 34.9191749,473.746469 C33.2877617,474.305308 31.6475477,474.897149 30.0040336,475.49449 C-6.99923606,596.771312 75.7408098,715.915086 210.227349,716.850151 C258.19068,717.183474 304.500596,704.630503 349.513522,687.261396 C321.582582,640.034017 290.578029,588.307325 254.02139,546.791542 C227.556853,516.738555 198.185913,492.035239 164.966906,478.269983" id="Fill-49" fill-opacity="0.3"></path>
                    <path d="M1415.27886,867.545546 C1402.75119,749.452345 1321.92528,628.745363 1253.40042,538.095768 C1213.25093,484.982979 1153.41778,424.94961 1084.37918,415.189733 C1101.15975,456.825424 1107.07266,503.074836 1093.48122,545.446478 C1057.81234,656.647701 946.623218,643.902215 847.87156,620.335279 C797.205341,709.06304 758.779673,808.385638 751.887694,904.908541 C747.822912,961.845195 766.001675,1011.18032 837.827862,1035.52391 C930.5236,1066.94209 1029.52167,1078.593 1127.07205,1072.05085 C1128.12042,1071.98154 1129.17209,1071.90784 1130.22267,1071.83523 C1178.2685,958.441558 1286.75584,876.884095 1415.27886,867.545546" id="Fill-63"></path>
                    <path d="M1093.48078,545.446698 C1107.07222,503.073956 1101.15931,456.824544 1084.37984,415.189953 C1067.54538,412.810487 1050.16527,413.405629 1032.38803,417.835636 C988.737002,428.712092 955.890921,464.10815 928.417613,499.728623 C900.15115,536.382069 872.559034,577.100296 847.87112,620.335499 C946.623878,643.902435 1057.8119,656.647921 1093.48078,545.446698" id="Fill-75" fill-opacity="0.3"></path>
                </g>
            </g>
        </g>
    </g>
</svg>