<?xml version="1.0" encoding="UTF-8"?>
<svg width="206px" height="206px" viewBox="0 0 206 206" version="1.1" xmlns="http://www.w3.org/2000/svg" xmlns:xlink="http://www.w3.org/1999/xlink">
    <title>Group 9</title>
    <g id="Chronnect" stroke="none" stroke-width="1" fill="none" fill-rule="evenodd">
        <g id="Home-Alt-Vive" transform="translate(-868.000000, -137.000000)" fill="#A7358E">
            <g id="Group-9" transform="translate(868.000000, 137.000000)">
                <path d="M205.984928,103 C206.195207,109.852176 204.188754,116.956833 200.985821,123.146159 C197.780414,129.389037 193.378236,134.716584 188.763161,139.259478 C179.273399,148.317035 169.675368,154.471727 162.186675,162.199362 C154.471842,169.675972 148.315982,179.272978 139.255218,188.744835 C134.718287,193.378972 129.389719,197.780855 123.146401,200.985969 C116.95678,204.1889 109.852119,206.195207 102.999938,205.984928 C96.1479022,206.195207 89.0430955,204.1889 82.8537659,200.985824 C76.6110298,197.780419 71.2834798,193.378389 66.7405829,188.763317 C57.6830203,179.27356 51.5283249,169.675536 43.8009763,162.186702 C36.324216,154.471872 26.72735,148.316017 17.2553415,139.255112 C12.621057,134.718185 8.2193161,129.389765 5.01390928,123.14645 C1.81112185,116.956833 -0.195186045,109.852176 0.0150928335,103 C-0.195331567,96.1478226 1.8108308,89.0431657 5.01390928,82.8538398 C8.2193161,76.6108164 12.6214935,71.2834152 17.2364237,66.740521 C26.7263313,57.6828183 36.3243616,51.5282721 43.8132001,43.8006371 C51.5281793,36.3240268 57.6838934,26.727021 66.744803,17.2553093 C71.2818791,12.6210275 76.6101567,8.2192893 82.8534749,5.01402992 C89.043241,1.81124441 96.1479022,-0.195207798 102.999938,0.0150709546 C109.85241,-0.195207798 116.957071,1.81124441 123.146255,5.01417544 C129.389137,8.21958034 134.716687,12.6217551 139.259729,17.2366825 C148.317146,26.7264389 154.471842,36.3246089 162.199481,43.8132974 C169.676241,51.5282721 179.273253,57.6839825 188.74497,66.7450322 C193.379109,71.2819599 197.780996,76.6102344 200.985966,82.8535488 C204.188899,89.0433112 206.195207,96.1478226 205.984928,103" id="Fill-1" transform="translate(103.000000, 103.000000) rotate(90.000000) translate(-103.000000, -103.000000) "></path>
            </g>
        </g>
    </g>
</svg>