<?xml version="1.0" encoding="UTF-8"?>
<svg width="1439px" height="814px" viewBox="0 0 1439 814" version="1.1" xmlns="http://www.w3.org/2000/svg" xmlns:xlink="http://www.w3.org/1999/xlink">
    <title>Group 57</title>
    <g id="Chronnect" stroke="none" stroke-width="1" fill="none" fill-rule="evenodd">
        <g id="Group-57" transform="translate(-0.000200, 0.000000)" fill="#A7358E">
            <path d="M235.674,717.2276 C286.901,719.4616 337.94,726.0336 388.063,736.8466 C482.18,757.1536 613.813,804.3086 716.383,784.8396 C691.944,751.7206 677.489,710.7836 677.489,666.4646 C677.489,556.2426 766.842,466.8896 877.065,466.8896 C882.806,466.8896 888.486,467.1456 894.103,467.6206 C893.222,455.0306 891.732,442.8446 889.575,431.2976 C882.916,395.6426 871.851,360.5056 857.077,326.8606 C840.826,327.1846 824.246,329.3886 807.102,333.6046 C730.661,352.4026 647.1,385.4656 582.459,326.7276 C562.864,308.9226 549.921,281.9346 553.215,254.1816 C556.088,229.9756 570.799,207.9056 588.99,191.5126 C618.629,164.8066 656.067,150.8886 689.565,130.9236 C692.507,129.1706 695.42,127.3686 698.319,125.5436 C600.57,53.0436 475.237,17.6496 354.072,30.8206 C211.921,46.2726 78.532,128.2416 0,247.6396 L0,654.5576 C10.557,663.0416 21.797,670.6886 33.492,677.4066 C101.464,716.4506 162.132,714.0196 235.674,717.2276" id="Fill-16"></path>
            <path d="M1037.1306,785.6847 C1031.8746,781.5307 1026.7256,777.2897 1021.7126,772.9557 C1002.8646,756.6637 985.1416,738.5237 973.0746,716.7277 C945.2486,666.4707 951.3626,603.5667 971.5346,549.7777 C977.4706,533.9487 984.6136,518.6137 992.8106,503.8667 C964.5086,483.6827 930.7126,470.7167 894.1036,467.6207 C898.3456,528.2317 888.1516,598.4607 866.6456,654.5407 C863.2396,663.4237 859.5496,671.9507 855.5896,680.0287 C835.0616,721.8897 798.5936,755.5367 755.5176,773.3717 C743.0896,778.5177 729.9886,782.2567 716.3836,784.8397 C724.0466,795.2237 732.6886,804.8377 742.1786,813.5457 L1011.9516,813.5457 C1021.1856,805.0737 1029.6236,795.7477 1037.1306,785.6847" id="Fill-21"></path>
            <path d="M698.319,125.544 C718.719,140.675 737.92,157.42 755.629,175.679 C797.594,218.949 832.478,270.838 857.077,326.86 C886.919,326.265 915.643,332.03 944.668,343.476 C985.969,359.763 1015.908,397.942 1052.401,424.843 C1082.887,394.179 1118.771,368.854 1157.992,350.768 C1219.339,322.48 1279.662,316.987 1337.124,336.76 C1346.167,308.352 1350.813,278.299 1351.366,249.785 C1352.715,180.185 1323.593,109.754 1281.315,55.925 C1270.319,41.925 1258.432,29.047 1245.96,17.6 C1239.275,11.464 1232.24,5.592 1224.912,0 L860.46,0 C837.839,16.433 816.088,34.439 794.522,52.353 C763.498,78.124 732.286,104.171 698.319,125.544" id="Fill-31"></path>
            <path d="M1438.7541,402.1515 C1432.0641,395.4215 1425.0421,389.0115 1417.6911,382.9715 C1391.6301,361.5585 1364.7061,346.2515 1337.1241,336.7595 C1316.4231,401.7885 1272.6501,458.1905 1201.9461,467.7135 C1154.3621,474.1225 1107.1541,459.0675 1067.1031,434.7605 C1062.0621,431.7005 1057.1771,428.3645 1052.4011,424.8425 C1029.0521,448.3275 1008.8811,474.9495 992.8101,503.8665 C1043.5521,540.0505 1076.6411,599.3925 1076.6411,666.4645 C1076.6411,711.1595 1061.9471,752.4195 1037.1301,785.6845 C1049.5941,795.5365 1062.7121,804.8605 1076.3591,813.5465 L1438.7541,813.5465 L1438.7541,402.1515 Z" id="Fill-42"></path>
        </g>
    </g>
</svg>