<?xml version="1.0" encoding="UTF-8"?>
<svg width="590px" height="502px" viewBox="0 0 590 502" version="1.1" xmlns="http://www.w3.org/2000/svg" xmlns:xlink="http://www.w3.org/1999/xlink">
    <title>Group 22</title>
    <defs>
        <rect id="path-1" x="0" y="0.0778816199" width="590" height="500" rx="8"></rect>
    </defs>
    <g id="Chronnect" stroke="none" stroke-width="1" fill="none" fill-rule="evenodd">
        <g id="Quiz-0" transform="translate(-115.000000, -166.000000)">
            <g id="Group-22" transform="translate(115.000000, 166.922118)">
                <mask id="mask-2" fill="white">
                    <use xlink:href="#path-1"></use>
                </mask>
                <g id="Mask"></g>
                <g id="Group-28" mask="url(#mask-2)">
                    <g transform="translate(0.000000, -89.922118)">
                        <path d="M160.768366,39.2666936 C173.694403,29.273613 186.198609,18.7345796 198.236539,7.68439846 C200.868536,5.2690937 203.451238,2.87240557 206,0.5 L0,0.5 L0,146 C30.5738288,122.215643 66.7823286,100.885536 97.5,82.5 C105.808123,77.5273375 113.434852,72.3148455 120.774462,67.5728673 C134.496078,58.7073067 147.843137,49.2601789 160.768366,39.2666936 Z" id="Fill-1" fill="#D34396"></path>
                        <g id="Group-5" stroke-width="1" fill="none" transform="translate(365.000000, 369.500000)">
                            <polygon id="Fill-3" fill="#D34396" points="0.393972172 219.999919 224.652724 219.999919 224.652724 0.0626029412 67.0044749 65.3884485"></polygon>
                        </g>
                        <path d="M208.277929,485.912528 C146.746207,484.972811 83.4383991,465.912128 32.5749272,431.103009 C21.5238615,423.539605 10.5071925,414.129911 0,403.5 L0,589.5 L365,589.5 L312.932238,468.924071 C279.337953,480.498548 243.832423,486.456553 208.277929,485.912528" id="Fill-6" fill="#D34396"></path>
                        <path d="M472,0.5 C487.427077,23.9710033 498.720713,50.7948335 506.905694,77.440003 C509.772676,86.7733071 512.261618,96.0851395 514.409635,105.222768 C521.474613,135.272215 523.768683,166.33934 521.585564,197.111128 C518.375641,242.370239 505.481886,286.991276 483.846779,326.796169 L589,370.5 L589,0.5 L472,0.5 Z" id="Fill-8" fill="#D34396"></path>
                        <g id="Group-15" stroke-width="1" fill="none" transform="translate(313.000000, 326.500000)">
                            <path d="M0.124184964,143.206274 L52.1548945,264.00004 L118.83668,109.198458 L276.652274,43.7928626 L171.259233,0.112604908 C162.768475,15.6906294 152.934369,30.5301018 141.813931,44.3815988 C105.2471,89.9272675 55.2629558,124.161022 0.124184964,143.206274 Z" id="Fill-13" fill="#E376AE"></path>
                        </g>
                        <g id="Group-21" stroke-width="1" fill="none" transform="translate(0.000000, 0.500000)">
                            <path d="M208.184539,485.882058 C243.723056,486.426281 279.212226,480.466514 312.791819,468.887422 L298.139325,434.928476 L140.28029,369.616868 L298.139325,304.304048 L364.836184,149.726937 L431.535066,304.304048 L483.971378,325.999379 C505.661519,286.273125 518.588072,241.740241 521.80616,196.57014 C523.994833,165.859145 521.695331,134.8538 514.611978,104.863719 C512.458496,95.7441429 509.963224,86.450707 507.088949,77.1358418 C498.883147,50.5429083 487.560784,23.7720714 472.094464,0.347841764 L206.220761,0.347841764 C203.669669,2.7180015 201.083792,5.1124208 198.449377,7.52584343 C186.398535,18.5651596 173.880512,29.0942161 160.941014,39.0778368 C148.001922,49.0618617 134.640546,58.5000464 120.903807,67.3572145 C113.556324,72.0947037 105.619506,76.9308484 97.3024714,81.8988035 C66.5518511,100.266935 30.6068256,120.449682 -0.000202242845,144.211524 L-0.000202242845,403.439557 C10.5026732,414.073739 21.5143917,423.486451 32.5604915,431.052605 C83.4011071,465.874384 146.680467,484.942 208.184539,485.882058 Z" id="Fill-19" fill="#E376AE"></path>
                        </g>
                        <path d="M364.757463,149.5 L298.000734,303.999384 L140.5,370 L298,435.5 L313,469.5 C368.202749,450.491679 418.390335,415.95735 455,370.5 C466.133341,356.675363 475.99939,342.047413 484.5,326.5 L431.516215,303.999384 L364.757463,149.5 Z" id="Fill-22" fill="#D34396"></path>
                    </g>
                </g>
            </g>
        </g>
    </g>
</svg>