<svg width="135" height="13" viewBox="0 0 135 13" fill="none" xmlns="http://www.w3.org/2000/svg">
<path d="M6.496 7.568C6.496 9.424 5.856 10.032 4.704 10.032C3.536 10.032 2.96 9.424 2.912 7.568H0.176C0.256 10.272 1.696 12.208 4.704 12.208C7.664 12.208 9.232 10.448 9.232 7.568V0.4H6.496V7.568ZM9.56062 12H12.4726L13.1606 9.936H17.6406L18.3446 12H21.3206L16.9366 0.4H13.9286L9.56062 12ZM15.4166 3.296L16.9046 7.712H13.9126L15.4166 3.296ZM25.0264 0.4H22.2904V12H25.0264V0.4ZM34.2225 12H37.4385L34.5745 7.184C35.9025 6.672 36.8465 5.696 36.8465 3.984C36.8465 1.104 34.5905 0.4 31.5825 0.4H27.1185V12H29.8545V7.632H31.7105L34.2225 12ZM31.6625 2.704C32.9585 2.704 33.9505 2.944 33.9505 4.016C33.9505 5.12 32.9585 5.328 31.6625 5.328H29.8545V2.704H31.6625ZM42.0872 12H47.3513C50.1673 12 52.0393 11.04 52.0393 8.432C52.0393 7.024 51.2873 6.208 50.1993 5.824C51.0953 5.264 51.5753 4.48 51.5753 3.408C51.5753 0.976 49.6873 0.4 47.1433 0.4H42.0872V12ZM44.8233 7.072H47.3833C48.5513 7.072 49.1433 7.568 49.1433 8.384C49.1433 9.2 48.5513 9.696 47.3833 9.696H44.8233V7.072ZM44.8233 2.704H47.2393C48.1993 2.704 48.7273 3.136 48.7273 3.856C48.7273 4.576 48.1993 5.04 47.2393 5.04H44.8233V2.704ZM53.5091 12H62.4051V9.584H56.2451V7.248H62.0691V4.832H56.2451V2.8H62.4051V0.4H53.5091V12ZM74.7425 12V0.4H72.1025V8.4L67.4465 0.4H64.1185V12H66.7585V4L71.4145 12H74.7425ZM75.545 12H78.457L79.145 9.936H83.625L84.329 12H87.305L82.921 0.4H79.913L75.545 12ZM81.401 3.296L82.889 7.712H79.897L81.401 3.296ZM85.8575 0.4L89.7615 12H92.9615L96.8975 0.4H94.1135L91.4415 8.928L88.7695 0.4H85.8575ZM100.589 0.4H97.8529V12H100.589V0.4ZM110.393 6.192C110.393 9.264 108.553 9.696 106.553 9.696H105.417V2.704H106.553C108.553 2.704 110.393 3.12 110.393 6.192ZM102.681 0.4V12H106.505C110.297 12 113.289 10.608 113.289 6.192C113.289 1.792 110.297 0.4 106.505 0.4H102.681ZM114.681 12H123.577V9.584H117.417V7.248H123.241V4.832H117.417V2.8H123.577V0.4H114.681V12ZM134.346 3.76C133.962 1.2 131.77 0.207999 129.514 0.207999C127.242 0.207999 124.698 1.312 124.698 3.68C124.698 5.76 126.41 6.672 128.298 7.056L129.706 7.344C130.986 7.616 131.866 7.984 131.866 8.736C131.866 9.696 130.826 10 129.882 10C128.458 10 127.498 9.44 127.194 8.224H124.474C124.906 10.736 126.826 12.208 129.818 12.208C132.234 12.208 134.682 10.832 134.682 8.4C134.682 5.968 132.314 5.392 130.442 5.008L128.858 4.688C128.042 4.512 127.514 4.096 127.514 3.52C127.514 2.8 128.282 2.4 129.354 2.4C130.522 2.4 131.37 2.88 131.642 3.76H134.346Z" fill="white"/>
</svg>
