<?xml version="1.0" encoding="UTF-8"?>
<svg width="207px" height="553px" viewBox="0 0 207 553" version="1.1" xmlns="http://www.w3.org/2000/svg" xmlns:xlink="http://www.w3.org/1999/xlink">
    <title>Group 2</title>
    <defs>
        <polygon id="path-1" points="0 0 207 0 207 553 0 553"></polygon>
    </defs>
    <g id="Chronnect" stroke="none" stroke-width="1" fill="none" fill-rule="evenodd">
        <g id="Single-General" transform="translate(-203.000000, -1931.000000)">
            <g id="Group-7" transform="translate(0.000000, 1690.000000)">
                <g id="Group-2" transform="translate(203.000000, 241.000000)">
                    <mask id="mask-2" fill="white">
                        <use xlink:href="#path-1"></use>
                    </mask>
                    <g id="Clip-2"></g>
                    <path d="M206.694691,297.1268 C205.125483,295.729256 202.860133,292.235132 200.94128,286.296226 C199.022951,280.356794 190.831468,277.564861 188.563493,273.022973 C186.295518,268.480033 184.552538,254.505642 184.37929,239.481908 C184.206566,224.46133 181.24035,207.16902 178.625879,199.65689 C176.008783,192.14476 173.394312,183.934647 174.265802,174.503721 C175.137293,165.070165 174.788696,155.639765 173.57071,150.748623 C172.350624,145.855377 171.825104,146.206209 173.743958,136.248245 C175.659662,126.292911 171.825104,115.287184 165.898446,104.807968 C159.972312,94.3255959 147.244879,94.1520206 143.932165,91.7072384 C140.616827,89.2614042 134.168324,87.8638599 128.065792,84.3692099 C121.962735,80.875612 117.955455,79.8294262 117.955455,77.384118 C117.955455,74.9388098 117.779057,68.4749699 120.216605,63.232995 C122.661503,57.993124 122.661503,52.7537791 122.661503,52.7537791 C125.271774,54.1507975 125.448172,51.7049633 127.712996,46.9868704 C129.980971,42.2724593 130.679213,39.1286419 130.153694,36.6838597 C129.635,34.2359216 127.3665,34.5862282 127.3665,34.5862282 C127.3665,34.5862282 131.377455,19.3889194 123.529318,9.6071607 C117.266663,1.79627098 107.785269,0.335082322 104.216883,0.0641996146 L104.216883,0 C104.216883,0 103.953861,0 103.498691,0.0184388466 C103.042471,0 102.783124,0 102.783124,0 L102.783124,0.0641996146 C99.2147391,0.335082322 89.7333448,1.79837493 83.4675397,9.6071607 C75.6225522,19.3889194 79.6329824,34.5862282 79.6329824,34.5862282 C79.6329824,34.5862282 77.3650077,34.2359216 76.8426386,36.6838597 C76.3207944,39.1286419 77.0190366,42.2724593 79.2843863,46.9868704 C81.5486861,51.7049633 81.7250841,54.1507975 84.338505,52.7537791 C84.338505,52.7537791 84.338505,57.993124 86.7802527,63.232995 C89.2209505,68.4749699 89.0482275,74.9388098 89.0482275,77.384118 C89.0482275,79.8294262 85.0377972,80.875612 78.9347402,84.3692099 C72.8322083,87.8638599 66.3800302,89.2614042 63.0678421,91.7072384 C59.7551291,94.1520206 47.027696,94.3255959 41.1015621,104.807968 C35.1717532,115.287184 31.3371959,126.292911 33.2560495,136.248245 C35.1717532,146.206209 34.649384,145.855377 33.4292976,150.748623 C32.2086862,155.639765 31.8595651,165.070165 32.7305304,174.503721 C33.6056956,183.934647 30.9875498,192.14476 28.374129,199.65689 C25.7596581,207.16902 22.7934412,224.46133 22.6207181,239.481908 C22.4479951,254.505642 20.7018645,268.480033 18.4365148,273.022973 C16.1685401,277.564861 7.97390645,280.356794 6.0587278,286.296226 C4.1398742,292.235132 1.87452446,295.729256 0.305316953,297.1268 C-1.26441554,298.52487 3.61750502,301.145332 5.88232977,297.1268 C8.15030448,293.11195 9.71688701,291.014319 11.1133714,291.71388 C12.5067059,292.412389 10.5915273,299.747262 8.84854669,307.436123 C7.10241616,315.119724 5.35996059,320.185493 8.49942559,320.185493 C11.6357406,320.185493 13.7273173,308.482308 14.5993326,306.034896 C15.4702979,303.589062 15.2975748,311.97538 13.0290751,317.913234 C10.7642503,323.852667 11.2866195,325.775145 13.0290751,326.123347 C14.7752056,326.47155 16.5176612,321.233783 16.5176612,321.233783 C16.5176612,321.233783 19.9138483,323.907895 23.5221331,314.616355 C23.5221331,314.616355 27.1267429,317.200524 30.4756805,306.616111 C33.8251432,296.037483 36.4023395,282.099385 35.1119039,275.645538 C33.8251432,269.194848 49.7980901,241.060917 51.60092,217.05808 C53.4032249,193.055242 56.7521626,174.472162 58.0394482,173.182445 C59.3298838,171.893254 66.7989755,195.896091 63.70991,208.540265 C60.6166445,221.18812 60.3609723,227.38213 60.1011002,229.704883 C59.8449031,232.026585 55.7215991,241.577436 54.4343134,252.159745 C53.1470278,262.740476 48.5076545,274.095984 52.6314835,310.746151 C56.7521626,347.394741 63.4500379,359.525026 64.2217793,367.008227 C64.9935207,374.493531 64.9935207,394.109121 64.7373235,397.983007 C64.4811264,401.852685 63.1906908,407.272443 62.9344936,411.40038 C62.6788215,415.53042 56.4959654,429.982933 63.4500379,458.631804 C70.4041103,487.280149 71.9507431,503.79663 71.9507431,506.896791 C71.9507431,509.992743 70.4041103,510.510839 71.9507431,514.637198 C73.4968509,518.768817 67.833739,527.502286 63.622761,531.036911 C59.4096829,534.574165 57.8131757,537.312974 57.2446071,539.139197 C56.6755134,540.964893 56.9054609,542.902625 58.3848944,542.902625 C58.3848944,542.902625 57.699777,544.386957 58.8405893,545.983324 C59.9782516,547.582321 61.3453363,547.008997 61.3453363,547.008997 C61.3453363,547.008997 61.2319376,548.83522 63.0515673,549.291775 C64.873297,549.748331 65.6718131,549.176584 65.6718131,549.176584 C65.6718131,549.176584 66.6960767,551.229507 68.7446038,551.117472 C70.793656,551.001229 71.2525009,549.404862 71.4782484,548.265577 C71.7045208,547.12261 72.3896382,544.726744 73.5273005,544.615235 C74.6681128,544.500044 75.3495552,545.526243 74.8975352,546.552967 C74.4418403,547.582321 74.2118929,548.265577 73.5273005,549.861418 C72.8453331,551.460941 74.4418403,553.628003 78.7683171,552.828504 C83.0947938,552.029006 81.2725392,547.922108 83.8933099,545.070213 C86.5104058,542.217792 87.6480681,539.935539 87.5383443,535.83022 C87.4223206,531.72227 91.9776948,532.521769 91.2931024,525.33312 C90.611135,518.14605 89.1280266,516.091549 90.4982613,512.211352 C91.8621961,508.332732 89.5868715,503.771909 89.357449,501.945686 C89.1280266,500.121567 89.4671728,482.891849 90.2420641,477.988609 C91.0132805,473.085895 93.8471989,456.307473 93.3316547,449.596945 C92.8161104,442.887996 96.6805924,437.723341 92.8161104,420.950178 C88.9547785,404.17386 95.1376346,406.239407 94.8782875,388.946044 C94.6189403,371.654786 99.2577886,365.978872 98.2272251,349.973649 C97.1961366,333.975264 100.285202,325.200768 100.801271,316.424169 C101.163517,310.26803 102.28438,308.048896 102.926448,307.274119 C103.801088,307.994193 105.091524,310.005037 105.42437,315.649391 C105.936239,324.427569 108.257238,333.975264 107.22615,349.973649 C106.195586,365.978872 109.288327,371.654786 109.02898,388.946044 C108.772783,406.239407 114.955639,404.17386 111.091157,420.950178 C107.22615,437.723341 109.544524,442.887996 109.02898,449.596945 C108.513435,456.307473 112.893462,473.085895 113.668353,477.988609 C114.439569,482.891849 114.775566,500.121567 114.549293,501.945686 C114.323546,503.771909 112.045596,508.332732 113.409006,512.211352 C114.775566,516.091549 113.296132,518.14605 112.614165,525.33312 C111.929047,532.521769 116.485472,531.72227 116.372073,535.83022 C116.259199,539.935539 117.396336,542.217792 120.017107,545.070213 C122.634728,547.922108 120.811948,552.029006 125.138425,552.828504 C129.465952,553.628003 131.061934,551.460941 130.380492,549.861418 C129.694849,548.265577 129.465952,547.582321 129.009732,546.552967 C128.554037,545.526243 129.239679,544.500044 130.380492,544.615235 C131.517629,544.726744 132.202221,547.12261 132.425344,548.265577 C132.654766,549.404862 133.110461,551.001229 135.162663,551.117472 C137.20804,551.229507 138.235454,549.176584 138.235454,549.176584 C138.235454,549.176584 139.030295,549.748331 140.85255,549.291775 C142.67533,548.83522 142.562456,547.008997 142.562456,547.008997 C142.562456,547.008997 143.929016,547.582321 145.066153,545.983324 C146.206965,544.386957 145.524998,542.902625 145.524998,542.902625 C147.005481,542.902625 147.231229,540.964893 146.66266,539.139197 C146.090416,537.312974 144.497584,534.574165 140.287131,531.036911 C136.070378,527.502286 130.409891,518.768817 131.956524,514.637198 C133.503157,510.510839 131.956524,509.992743 131.956524,506.896791 C131.956524,503.79663 133.503157,487.280149 140.456704,458.631804 C147.410777,429.982933 142.775078,415.53042 142.518881,411.40038 C142.262684,407.272443 140.972248,401.852685 140.716051,397.983007 C140.456704,394.109121 142.000187,374.493531 142.775078,367.008227 C143.54682,359.525026 150.24732,347.394741 154.368524,310.746151 C158.492353,274.095984 150.759714,262.740476 149.472954,252.159745 C148.186193,241.577436 147.155105,232.026585 146.898907,229.704883 C146.639035,227.38213 146.383363,221.18812 143.293773,208.540265 C140.201032,195.896091 147.670124,171.893254 148.956884,173.182445 C150.24732,174.472162 153.596783,193.055242 155.399088,217.05808 C157.201918,241.060917 173.174864,269.194848 171.884954,275.645538 C170.597668,282.099385 173.174864,296.037483 176.520652,306.616111 C179.86959,317.200524 183.474725,314.616355 183.474725,314.616355 C187.083534,323.907895 190.482346,321.233783 190.482346,321.233783 C190.482346,321.233783 192.224802,326.47155 193.967783,326.123347 C195.710238,325.775145 196.232082,323.852667 193.967783,317.913234 C191.699808,311.97538 191.526035,303.589062 192.400675,306.034896 C193.26954,308.482308 195.364267,320.185493 198.500582,320.185493 C201.636372,320.185493 199.893917,315.119724 198.151461,307.436123 C196.40533,299.747262 194.489627,292.412389 195.886636,291.71388 C197.279446,291.014319 198.849703,293.11195 201.114528,297.1268 C203.382503,301.145332 208.264423,298.52487 206.694691,297.1268" id="Fill-1" fill="#307B9E" mask="url(#mask-2)"></path>
                </g>
            </g>
        </g>
    </g>
</svg>