<?xml version="1.0" encoding="UTF-8"?>
<svg width="327px" height="211px" viewBox="0 0 327 211" version="1.1" xmlns="http://www.w3.org/2000/svg" xmlns:xlink="http://www.w3.org/1999/xlink">
    <title>Group 8</title>
    <defs>
        <rect id="path-1" x="0.227518198" y="0.622002198" width="325" height="209" rx="4"></rect>
    </defs>
    <g id="Chronnect" stroke="none" stroke-width="1" fill="none" fill-rule="evenodd">
        <g id="Single-Extraintestinal" transform="translate(-969.000000, -437.000000)">
            <g id="Group-6" transform="translate(941.000000, 290.000000)">
                <g id="Group-8" transform="translate(28.000000, 147.000000)">
                    <g id="Fill-1-+-Fill-1-+-Fill-4-+-Fill-6-+-Rectangle-Mask" transform="translate(0.772482, 0.377998)">
                        <mask id="mask-2" fill="white">
                            <use xlink:href="#path-1"></use>
                        </mask>
                        <use id="Mask" fill="#F2F2F2" xlink:href="#path-1"></use>
                        <path d="M348.828495,124.931304 C331.617651,107.152461 306.018826,97.9008777 281.442503,100.57734 C264.932557,102.375234 249.126315,109.529743 236.58941,120.419528 C230.463873,125.740304 225.118846,131.952648 220.853311,138.867706 C219.556027,140.970227 218.290307,143.16902 217.090696,145.442651 C209.999123,158.88487 205.251534,174.961915 210.383854,189.535328 C211.844745,193.684152 214.177331,197.454038 217.090696,200.744848 C218.029552,201.805244 219.028907,202.815923 220.079114,203.773546 C221.12897,204.730994 222.229856,205.635212 223.371949,206.482685 C224.742357,207.499512 226.172385,208.434825 227.645025,209.282122 C239.051409,215.846526 249.232405,215.437723 261.573787,215.977056 C265.871939,216.16468 270.162375,216.534835 274.429489,217.085236 C278.696778,217.635461 282.940745,218.366284 287.146659,219.27542 C289.396302,219.761874 291.773954,220.339856 294.246825,220.963866 C304.963183,223.668262 317.47203,227.240333 329.145482,227.983278 C336.198301,228.431785 342.946527,227.848181 348.809732,225.415912 C356.038609,222.417431 362.158359,216.761109 365.603228,209.7229 C366.268003,208.364905 366.886835,206.931368 367.458671,205.438276 C371.817496,194.05132 373.410956,179.192079 371.306683,167.906138 C368.327911,151.930635 360.100556,136.57475 348.828495,124.931304 Z" id="Fill-1" fill-opacity="0.4" fill="#A8DCD9" mask="url(#mask-2)" transform="translate(290.227518, 164.122002) rotate(145.000000) translate(-290.227518, -164.122002) "></path>
                        <path d="M158.02445,95.5521615 C136.872527,73.745299 105.411876,62.3976542 75.2078656,65.6805027 C54.917338,67.8857322 35.4916539,76.6611838 20.0839473,90.0181861 C12.555735,96.5444501 5.98675992,104.164279 0.744467374,112.64603 C-0.849879194,115.224903 -2.40543387,117.92186 -3.8797411,120.710611 C-12.5952006,137.198332 -18.4299315,156.917833 -12.1223706,174.793035 C-10.3269528,179.881827 -7.4602323,184.505827 -3.8797411,188.542212 C-2.72589796,189.842853 -1.49770371,191.082514 -0.207011417,192.257099 C1.08324986,193.431469 2.43622468,194.540548 3.83984447,195.580027 C5.52405891,196.827229 7.28154691,197.974449 9.09140397,199.013712 C23.1097145,207.065364 35.6220377,206.56394 50.7894501,207.225466 C56.0718276,207.4556 61.3447227,207.909617 66.5889548,208.584718 C71.8334025,209.259604 77.0491872,210.156004 82.2182062,211.271116 C84.9829902,211.867782 87.9050969,212.576714 90.9442257,213.342101 C104.114502,216.659211 119.487727,221.04058 133.83426,221.951848 C142.502092,222.50197 150.795582,221.786144 158.001391,218.802813 C166.885595,215.124989 174.406695,208.187157 178.640399,199.554353 C179.457399,197.888687 180.217936,196.130365 180.920715,194.298994 C186.277659,180.332182 188.236003,162.106393 185.649877,148.263482 C181.989001,128.668529 171.87768,109.833576 158.02445,95.5521615 Z" id="Fill-1" fill-opacity="0.6" fill="#A8DCD9" mask="url(#mask-2)" transform="translate(86.004545, 143.622002) scale(-1, -1) rotate(212.000000) translate(-86.004545, -143.622002) "></path>
                        <path d="M279.66694,53.3401506 C257.571937,30.5610076 224.708582,18.707417 193.157896,22.1366345 C171.962695,24.4401863 151.670898,33.6069001 135.576223,47.5594375 C127.712358,54.3766814 120.850499,62.3362476 115.374474,71.1961662 C113.709041,73.8900209 112.084131,76.7072238 110.54409,79.6203143 C101.440043,96.843157 95.3451652,117.441871 101.933955,136.114056 C103.809423,141.429738 106.803959,146.259904 110.54409,150.476254 C111.749379,151.834886 113.032333,153.129818 114.380572,154.356773 C115.728361,155.583504 117.14166,156.742032 118.607861,157.827857 C120.367168,159.130667 122.203015,160.329037 124.093567,161.414637 C138.736897,169.825279 151.807095,169.301499 167.650761,169.99252 C173.168659,170.232914 178.676651,170.707175 184.154702,171.412376 C189.632979,172.117352 195.081315,173.053718 200.480799,174.218549 C203.368854,174.841818 206.421246,175.582358 209.595877,176.381871 C223.353364,179.846878 239.412019,184.423595 254.398206,185.375492 C263.452502,185.950142 272.115765,185.202399 279.642852,182.086054 C288.923167,178.24425 296.779603,170.997088 301.202071,161.979383 C302.055498,160.239452 302.849944,158.402732 303.584057,156.489709 C309.179846,141.900172 311.225505,122.861768 308.524074,108.401657 C304.699973,87.9330437 294.137829,68.2583161 279.66694,53.3401506 Z" id="Fill-1" fill-opacity="0.6" fill="#A8DCD9" mask="url(#mask-2)" transform="translate(204.435956, 103.553233) rotate(212.000000) translate(-204.435956, -103.553233) "></path>
                        <path d="M163.227518,191.622002 C115.731084,191.622002 77.2275182,153.118437 77.2275182,105.622002 C77.2275182,58.1255675 115.731084,19.6220022 163.227518,19.6220022 L163.227518,191.622002 Z" id="Fill-4" fill="#F2983F" mask="url(#mask-2)"></path>
                        <path d="M163.227518,19.6220022 C210.723953,19.6220022 249.227518,58.1255675 249.227518,105.622002 C249.227518,153.118437 210.723953,191.622002 163.227518,191.622002 L163.227518,19.6220022 Z" id="Fill-6" fill="#FCE076" mask="url(#mask-2)"></path>
                    </g>
                </g>
            </g>
        </g>
    </g>
</svg>