<?xml version="1.0" encoding="UTF-8"?>
<svg width="154px" height="183px" viewBox="0 0 154 183" version="1.1" xmlns="http://www.w3.org/2000/svg" xmlns:xlink="http://www.w3.org/1999/xlink">
    <title>Group 10</title>
    <defs>
        <polygon id="path-1" points="0.580066529 0.808350993 109.839999 0.808350993 109.839999 183 0.580066529 183"></polygon>
    </defs>
    <g id="Chronnect" stroke="none" stroke-width="1" fill="none" fill-rule="evenodd">
        <g id="Conoce-Copy-2" transform="translate(-344.000000, -2235.000000)">
            <g id="Group-4" transform="translate(0.000000, 1670.000000)">
                <g id="Group-10" transform="translate(344.000000, 565.000000)">
                    <path d="M35.0892204,64.1013776 C37.5554081,60.374209 40.6654237,57.0321085 44.2325448,54 L0,54 L0,123.482995 L0,147 L53,147 C42.2234627,135.477019 32.9431277,117.619789 29.2111091,101.545012 C28.7079292,99.3762793 28.3041728,97.2402411 28.0131772,95.156272 C26.5,84.3598344 29.1274478,73.1153616 35.0892204,64.1013776 Z" id="Fill-1" fill="#FFE9A0"></path>
                    <g id="Group-5" transform="translate(44.000000, 0.000000)">
                        <mask id="mask-2" fill="white">
                            <use xlink:href="#path-1"></use>
                        </mask>
                        <g id="Clip-4"></g>
                        <path d="M82.7565602,16.4710907 C77.4636038,19.1033821 72.0596992,21.5090444 66.5593178,23.6783821 C63.6191885,24.8381901 60.4607805,25.9907265 57.1576574,27.1614417 C43.5074016,32.0030642 27.3957824,37.1852364 13.883006,44.6700576 C13.2293759,45.0324219 12.5745399,45.3947861 11.9329695,45.7668457 C7.82064749,48.1628126 3.88459145,51.1307513 0.474137931,54.0466321 L12.8017241,54.0466321 L49.3103448,54.0466321 L49.2067663,146.787693 L9.30156578,146.787693 C9.61149738,147.120972 9.91660513,147.467581 10.2289487,147.791164 C25.9606906,164.043018 47.2012556,175.553839 69.0484183,180.423336 C80.4206166,182.957462 92.7729301,184.131934 104.310345,183 C107.913752,181.595384 110,179.531402 110,175.414508 L109.841205,17.7714815 L109.841205,0.808229801 C106.088259,3.03816358 102.30637,5.44624967 98.2748473,7.90281258 C93.2267007,10.9798788 88.0483105,13.8387993 82.7565602,16.4710907 Z" id="Fill-3" fill="#FFE9A0" mask="url(#mask-2)"></path>
                    </g>
                    <path d="M93,54 L56.226022,54 L43.7587971,54 C40.1648072,57.0320691 37.0336519,60.3753369 34.5497323,64.1024569 C28.5450948,73.1151127 25.8987556,84.3594391 27.4228125,95.1557361 C27.7159004,97.2396781 28.1225598,99.3768993 28.6293575,101.545604 C32.3882093,117.61896 41.7352697,135.475958 52.5892901,147 L93,147 L93,54 Z" id="Fill-6" fill="#EAFCFB"></path>
                    <path d="M93,54 L56.226022,54 L43.7587971,54 C40.1648072,57.0320691 37.0336519,60.3753369 34.5497323,64.1024569 C28.5450948,73.1151127 25.8987556,84.3594391 27.4228125,95.1557361 C27.7159004,97.2396781 28.1225598,99.3768993 28.6293575,101.545604 C32.3882093,117.61896 41.7352697,135.475958 52.5892901,147 L93,147 L93,54 Z" id="Fill-8" fill="#FFDD6C"></path>
                </g>
            </g>
        </g>
    </g>
</svg>