<?xml version="1.0" encoding="UTF-8"?>
<svg width="168px" height="162px" viewBox="0 0 168 162" version="1.1" xmlns="http://www.w3.org/2000/svg" xmlns:xlink="http://www.w3.org/1999/xlink">
    <title>Group 13</title>
    <defs>
        <polygon id="path-1" points="0 0.8623 20.4997588 0.8623 20.4997588 56.0793 0 56.0793"></polygon>
        <polygon id="path-3" points="0.873920808 0.975 154.97 0.975 154.97 160.9997 0.873920808 160.9997"></polygon>
    </defs>
    <g id="Chronnect" stroke="none" stroke-width="1" fill="none" fill-rule="evenodd">
        <g id="Conoce-Copy-2" transform="translate(-743.000000, -1999.000000)">
            <g id="Group-4" transform="translate(0.000000, 1670.000000)">
                <g id="Group-14" transform="translate(528.000000, 308.000000)">
                    <g id="Group-13" transform="translate(215.000000, 21.000000)">
                        <g id="Group-3" transform="translate(0.000000, 48.025000)">
                            <mask id="mask-2" fill="white">
                                <use xlink:href="#path-1"></use>
                            </mask>
                            <g id="Clip-2"></g>
                            <path d="M20.3367,26.0643 C20.2297,25.1663 20.1047,24.2733 19.9677,23.3843 C19.9127,23.0293 19.8567,22.6753 19.7987,22.3223 C19.6827,21.6183 19.5607,20.9163 19.4337,20.2163 L19.3947,20.2553 L-0.0003,0.8623 L-0.0003,26.3513 C-0.0003,38.2913 5.3957,48.9643 13.8777,56.0793 C13.9077,53.6973 14.1837,51.3363 14.7497,49.0233 C16.7957,40.6693 21.4237,35.2053 20.3367,26.0643" id="Fill-1" fill="#FFE977" mask="url(#mask-2)"></path>
                        </g>
                        <path d="M77.5759,48.8874 L58.1819,68.2804 L38.7879,48.8874 L19.5119,68.1624 L19.4329,68.2414 C19.5599,68.9404 19.6819,69.6434 19.7989,70.3474 C19.8559,70.7004 19.9129,71.0544 19.9679,71.4094 C20.1039,72.2984 20.2289,73.1904 20.3369,74.0894 C21.4239,83.2304 16.7959,88.6944 14.7499,97.0484 C14.1829,99.3614 13.9079,101.7224 13.8779,104.1044 C20.6169,109.7564 29.3019,113.1644 38.7879,113.1644 C60.2139,113.1644 77.5759,95.8024 77.5759,74.3764 L77.5759,48.8874 Z" id="Fill-8" fill="#FFDD6C"></path>
                        <g id="Group-12" transform="translate(13.000000, 0.025000)">
                            <mask id="mask-4" fill="white">
                                <use xlink:href="#path-3"></use>
                            </mask>
                            <g id="Clip-11"></g>
                            <path d="M138.821,43.8007 C128.685,42.7067 118.322,41.5507 109.136,37.1297 C100.819,33.1267 94.026,26.7267 87.169,20.4287 C80.838,14.6147 74.452,8.8887 66.759,5.2207 C64.076,3.9407 61.263,2.9507 58.38,2.2517 C57.555,2.0517 56.725,1.8747 55.891,1.7227 C54.392,1.4467 52.879,1.2477 51.359,1.1247 C43.151,0.4607 34.753,2.0037 27.401,5.7147 C26.884,5.9757 26.371,6.2417 25.865,6.5257 C13.491,13.4267 4.799,26.5467 3.268,40.6327 C2.23,50.1907 4.739,58.9787 6.413,68.0977 C6.45,68.1127 6.477,68.1237 6.511,68.1377 L25.788,48.8627 L45.182,68.2557 L64.576,48.8627 L64.576,74.3517 C64.576,95.7777 47.214,113.1397 25.788,113.1397 C16.301,113.1397 7.617,109.7317 0.878,104.0787 C0.871,104.5977 0.872,105.1167 0.889,105.6377 C0.898,105.9157 0.906,106.1947 0.922,106.4727 C1.077,109.2787 1.561,112.1037 2.324,114.9087 C3.168,118.0117 4.351,121.0917 5.803,124.0977 C6.288,125.0987 6.801,126.0917 7.343,127.0747 C12.217,135.9227 19.302,143.9377 26.704,149.7107 C26.961,149.9107 27.217,150.1087 27.475,150.3037 C29.28,151.6677 31.098,152.8987 32.904,153.9717 C33.317,154.2167 33.729,154.4537 34.14,154.6837 C34.161,154.6947 34.181,154.7047 34.202,154.7167 C36.659,156.0797 39.245,157.2387 41.909,158.1787 C41.945,158.1917 41.981,158.2047 42.017,158.2187 C43.638,158.7867 45.29,159.2717 46.959,159.6717 C49.691,160.3277 52.473,160.7527 55.261,160.9297 C55.726,160.9597 56.191,160.9997 56.656,160.9997 C108.884,160.9997 128.871,139.7287 154.97,116.6247 L154.97,113.2827 L154.97,46.0857 C149.663,44.9867 144.211,44.3817 138.821,43.8007" id="Fill-10" fill="#FFE988" mask="url(#mask-4)"></path>
                        </g>
                    </g>
                </g>
            </g>
        </g>
    </g>
</svg>