<?xml version="1.0" encoding="UTF-8"?>
<svg width="1319px" height="2143px" viewBox="0 0 1319 2143" version="1.1" xmlns="http://www.w3.org/2000/svg" xmlns:xlink="http://www.w3.org/1999/xlink">
    <title>Group 30</title>
    <g id="Chronnect" stroke="none" stroke-width="1" fill="none" fill-rule="evenodd">
        <g id="Group-30" transform="translate(-0.000200, -0.000200)" fill="#F1EBDD">
            <path d="M892.4301,197.475 C911.2501,127.168 942.1661,60.396 982.6901,0 L0.000100000005,0 L0.000100000005,51.317 C94.3531,31.776 192.9931,31.713 283.2171,50.282 C317.1841,57.272 351.5841,67.199 385.5611,79.846 C516.1931,128.475 640.5611,217.328 709.9261,334.146 C770.8361,436.727 805.6921,569.137 776.5251,682.295 C924.0201,708.279 1051.1391,795.188 1046.0701,963.475 C1041.6561,1109.995 946.6901,1280.326 800.8261,1326.614 C569.0111,1400.174 398.5001,1129.954 413.2211,914.973 C407.3051,915.036 401.3951,915.012 395.4961,914.904 C290.8341,912.972 185.7951,866.889 83.8041,881.299 C54.5671,885.43 26.6971,891.519 0.000100000005,899.78 L0.000100000005,1306.972 C172.3491,1228.92 398.2511,1262.379 561.6661,1335.193 C622.1881,1362.161 675.1801,1405.601 714.5751,1458.913 C750.3961,1436.684 786.3011,1415.932 819.3661,1396.174 C836.9791,1385.649 853.7851,1375.406 869.3441,1365.369 C898.4341,1346.606 926.7271,1326.612 954.1271,1305.461 C981.5271,1284.312 1008.0351,1262.007 1033.5531,1238.621 C1106.8221,1171.476 1162.4181,1111.238 1264.5801,1083.623 C1277.7701,1080.058 1291.2151,1077.234 1304.7861,1075.212 C1309.5101,1074.508 1314.2521,1073.925 1319.0001,1073.418 L1319.0001,1001.811 C1189.8141,979.234 1081.6481,876.507 1005.3811,775.643 C882.7691,613.489 839.8601,393.853 892.4301,197.475 Z" id="Fill-1"></path>
            <path d="M376.615,1910.8211 C261.584,1817.2601 219.894,1655.3571 64.701,1609.4711 C44.305,1603.4411 22.173,1598.8831 0,1593.6971 L0,2135.0001 C-6.22464237e-14,2139.41838 3.581722,2143.0001 8,2143.0001 L692.99,2143.0001 L692.99,2143.0001 C689.391,2140.6441 685.815,2138.2561 682.27,2135.8281 C627.206,2098.0981 572.537,2038.7051 531.424,1974.8471 C475.869,1971.3661 420.419,1946.4501 376.615,1910.8211 Z" id="Fill-4"></path>
            <path d="M667.8049,673.8393 C639.2539,674.2603 613.3579,677.6973 589.9899,683.7413 C474.3299,713.6543 420.5869,807.3993 413.2209,914.9733 C503.8359,914.0313 595.9209,892.7423 669.0959,839.7423 C727.0629,797.7573 760.9359,742.7763 776.5249,682.2953 C740.9479,676.0273 704.1839,673.3033 667.8049,673.8393" id="Fill-23"></path>
            <path d="M483.6897,1681.2885 C459.5937,1739.4385 456.8987,1806.3725 477.2667,1865.9335 C481.1957,1877.4265 485.8157,1889.0885 491.0427,1900.8185 C502.0437,1925.5095 515.7517,1950.5025 531.4237,1974.8475 C557.8807,1976.5055 584.3627,1973.3085 609.6217,1964.0805 C662.4847,1944.7665 704.9607,1903.6755 735.0797,1853.4145 C774.3407,1787.8925 792.6017,1706.7875 785.4907,1638.0175 C778.7637,1572.9605 753.2077,1511.1905 714.5757,1458.9125 C667.7177,1487.9905 621.0037,1519.6005 580.9777,1554.8465 C538.3087,1592.4215 503.2347,1634.1225 483.6897,1681.2885" id="Fill-35"></path>
        </g>
    </g>
</svg>