<?xml version="1.0" encoding="UTF-8"?>
<svg width="383px" height="425px" viewBox="0 0 383 425" version="1.1" xmlns="http://www.w3.org/2000/svg" xmlns:xlink="http://www.w3.org/1999/xlink">
    <title>IL</title>
    <defs>
        <polygon id="path-1" points="0 0 165.462088 0 165.462088 117.345997 0 117.345997"></polygon>
        <polygon id="path-3" points="0 423.608163 382.451919 423.608163 382.451919 1.00381081 0 1.00381081"></polygon>
    </defs>
    <g id="Chronnect" stroke="none" stroke-width="1" fill="none" fill-rule="evenodd">
        <g id="About" transform="translate(-941.000000, -608.000000)">
            <g id="IL" transform="translate(941.000000, 608.533986)">
                <path d="M92.3505947,94.3582163 C100.558359,93.2739986 108.683097,91.9298837 116.442054,89.3391623 C108.683097,91.9298837 100.558359,93.2739986 92.3505947,94.3582163" id="Fill-1" fill="#FFFFFF"></path>
                <path d="M116.309576,89.3876587 C116.398289,89.3561163 116.485819,89.3226025 116.574532,89.2906658 C116.485819,89.3222082 116.398289,89.3561163 116.309576,89.3876587" id="Fill-3" fill="#FFFFFF"></path>
                <path d="M333.26519,74.2820001 C333.881597,74.3994096 334.491986,74.5303768 335.095927,74.6765286 C335.84215,74.8573881 336.569458,75.0623803 337.280433,75.2858109 C336.569458,75.0621091 335.84215,74.8573881 335.095927,74.6765286 C334.491986,74.5303768 333.881597,74.3994096 333.26519,74.2820001" id="Fill-5" fill="#FFFFFF"></path>
                <path d="M30.1143244,117.377038 C38.3288934,107.074415 51.9283576,101.314336 65.4395058,98.3734596 C51.9283576,101.313946 38.3288934,107.074415 30.1143244,117.377038 C44.3743758,128.715071 62.5638918,135.51446 82.3834901,135.51446 C96.5168102,135.51446 109.819644,132.054903 121.461108,125.960997 C109.819644,132.054513 96.5172062,135.51407 82.3838861,135.51407 C62.5642879,135.51407 44.3743758,128.715071 30.1143244,117.377038" id="Fill-7" fill="#FFFFFF"></path>
                <path d="M249.086382,72.7892883 C238.305788,73.5356098 227.462798,74.5711909 217.096083,77.6351845 C199.318649,82.8894002 183.583754,94.4130366 172.65546,109.415378 C183.583754,94.4134361 199.318649,82.8894002 217.096083,77.6351845 C227.462798,74.5711909 238.305788,73.5360094 249.086776,72.7892883 C273.013548,71.133637 297.033916,70.831193 320.995046,71.8843534 C323.073918,71.9758457 325.170167,72.0813216 327.242325,72.3150465 C325.170167,72.0813216 323.073918,71.9758457 320.995046,71.8843534 C297.033916,70.831193 273.013548,71.133637 249.086382,72.7892883" id="Fill-9" fill="#FFFFFF"></path>
                <path d="M314.087906,205.781216 C314.171493,206.112422 314.241281,206.447122 314.297663,206.785027 C314.241281,206.447122 314.171493,206.112422 314.087906,205.781216" id="Fill-11" fill="#FFFFFF"></path>
                <path d="M268.017877,209.51805 C268.017877,196.920987 278.227183,186.709204 290.821549,186.709204 C295.365655,186.709204 299.595525,188.043844 303.150865,190.33472 C299.595135,188.043844 295.365655,186.708811 290.821549,186.708811 C278.227183,186.708811 268.017487,196.921381 268.017487,209.51805 C268.017487,215.42264 270.260848,220.802894 273.941882,224.853622 C270.261239,220.803288 268.017877,215.42264 268.017877,209.51805" id="Fill-13" fill="#FFFFFF"></path>
                <path d="M142.954214,189.378546 C142.490734,190.166621 142.017385,190.948812 141.537324,191.727865 C142.017385,190.948812 142.490734,190.166621 142.954214,189.378546 C147.721657,181.271844 151.411728,172.541822 153.788738,163.467777 C156.119164,154.573392 157.18943,145.384804 159.605919,136.51827 C157.189035,145.384411 156.118769,154.573392 153.788343,163.467777 C151.411333,172.54143 147.721657,181.271844 142.954214,189.378546" id="Fill-15" fill="#FFFFFF"></path>
                <path d="M314.228466,209.79646 C314.228466,209.12049 314.199684,208.452358 314.157102,207.788838 C314.199684,208.452358 314.228466,209.12049 314.228466,209.79646" id="Fill-17" fill="#FFFFFF"></path>
                <path d="M125.476351,85.323919 C134.133578,80.9817553 142.138831,75.3452663 150.694745,70.7529953 C155.213666,68.3276639 159.879589,66.2001734 164.624973,64.243892 L164.624973,64.243892 C159.879589,66.1997789 155.213269,68.3272695 150.694348,70.7529953 C142.138433,75.3448718 134.133578,80.9813608 125.476351,85.323919" id="Fill-19" fill="#FFFFFF"></path>
                <path d="M228.868865,294.116568 C231.091096,293.137671 232.689161,290.361908 234.89173,289.097514 C232.688743,290.361908 231.090678,293.137671 228.868865,294.116568" id="Fill-21" fill="#FFFFFF"></path>
                <path d="M234.89173,289.097514 C242.497492,280.087987 252.27292,275.947846 262.998433,276.04981 C252.272529,275.947846 242.497101,280.087987 234.89173,289.097514" id="Fill-23" fill="#FFFFFF"></path>
                <path d="M334.346172,283.498176 C333.250481,285.345203 331.856798,286.863808 330.253757,288.093703 C331.856798,286.863808 333.250863,285.345203 334.346937,283.498176 C338.063424,277.234726 337.236307,269.319237 338.206307,262.043913 C338.521873,259.673873 339.232085,257.205347 340.291865,254.967946 C339.232085,257.205347 338.521491,259.673873 338.206307,262.043516 C337.236307,269.319237 338.063042,277.234726 334.346172,283.498176" id="Fill-25" fill="#FFFFFF"></path>
                <path d="M229.932409,294.091531 C229.893376,294.110851 229.85237,294.123862 229.812942,294.141605 C229.85237,294.123862 229.893376,294.110851 229.932409,294.091531" id="Fill-27" fill="#FFFFFF"></path>
                <path d="M128.526609,224.853622 C128.225193,219.389043 129.707153,213.783439 131.99937,208.733093 C133.571674,205.268965 135.503731,201.989655 137.522081,198.754541 C135.503731,201.989655 133.571674,205.268965 131.998965,208.733495 C129.706748,213.783439 128.225193,219.389043 128.526609,224.853622" id="Fill-29" fill="#FFFFFF"></path>
                <path d="M226.861243,295.12015 C224.806761,295.137088 222.752278,294.211152 220.838379,293.112757 C222.751901,294.211152 224.806761,295.137088 226.861243,295.12015" id="Fill-31" fill="#FFFFFF"></path>
                <path d="M139.529703,242.922216 C139.859303,243.264088 140.193145,243.599854 140.533514,243.926027 C140.193145,243.599854 139.859303,243.264088 139.529703,242.922216" id="Fill-33" fill="#FFFFFF"></path>
                <path d="M135.51446,239.910784 C135.171581,239.582401 134.838538,239.246465 134.510649,238.906973 C134.838538,239.246465 135.171581,239.582401 135.51446,239.910784" id="Fill-35" fill="#FFFFFF"></path>
                <path d="M136.51827,239.910784 C137.152776,240.612259 137.824211,241.281466 138.525892,241.918406 C137.824211,241.281466 137.152776,240.612259 136.51827,239.910784" id="Fill-37" fill="#FFFFFF"></path>
                <path d="M235.895541,170.647838 C228.661811,169.189651 222.561809,162.987444 216.823135,157.598297 C222.561411,162.987444 228.662209,169.189651 235.895541,170.647838" id="Fill-39" fill="#FFFFFF"></path>
                <path d="M236.899352,170.749957 C236.560967,170.705009 236.226904,170.634038 235.895541,170.545719 C236.226904,170.634038 236.560967,170.705009 236.899352,170.749957" id="Fill-41" fill="#FFFFFF"></path>
                <path d="M184.722143,166.784206 C185.100077,178.217641 189.015808,189.252738 189.716053,200.669777 C189.717958,200.700572 189.718339,200.731367 189.720243,200.762162 C189.718339,200.731367 189.717958,200.700572 189.716053,200.669777 C189.015808,189.252738 185.100077,178.217641 184.722143,166.784206 C184.709571,166.401465 184.702332,166.016324 184.701189,165.628784 C184.702332,166.016324 184.709571,166.401465 184.722143,166.784206" id="Fill-43" fill="#FFFFFF"></path>
                <g id="Group-47">
                    <mask id="mask-2" fill="white">
                        <use xlink:href="#path-1"></use>
                    </mask>
                    <g id="Clip-46"></g>
                    <path d="M30.5592222,117.345997 C38.7584399,106.934302 52.3324896,101.11285 65.8183884,98.141233 C66.937865,97.894912 68.0569464,97.6651437 69.1724701,97.4570517 C76.7736058,96.0366661 84.5324645,95.2125745 92.2193794,94.1551676 C100.503981,93.0157851 108.70478,91.6032818 116.536373,88.8807448 C116.623338,88.850398 116.710698,88.8224159 116.797268,88.7920692 C116.886209,88.7605401 116.973965,88.7266463 117.062906,88.6951172 C117.98434,88.3672147 118.90103,88.0231535 119.811791,87.6562337 C121.883139,86.821501 123.905866,85.8894222 125.893411,84.8879795 C134.506898,80.5495765 142.471311,74.9184808 150.983998,70.330998 C155.480088,67.9075932 160.122833,65.7821384 164.844241,63.8281229 L164.844241,63.8281229 C165.249419,60.5420034 165.462088,57.1975551 165.462088,53.8030543 L165.462088,-0.000157645456 L124.096398,40.9352439 L82.7307079,-0.000157645456 L41.3654133,40.9352439 L-0.000276706799,-0.000157645456 L-0.000276706799,53.8030543 C-0.000276706799,79.4503936 11.9123463,102.33539 30.5588269,117.345997 L30.5588269,117.345997 L30.5592222,117.345997 Z" id="Fill-45" fill="#EF803B" mask="url(#mask-2)"></path>
                </g>
                <path d="M140.711923,244.072084 C140.300663,243.777317 139.897289,243.47468 139.499041,243.166139 C139.211987,242.943785 138.928087,242.719463 138.648919,242.490025 C137.779477,241.775737 136.948282,241.024456 136.162432,240.237362 C136.1439,240.218865 136.124973,240.201156 136.106441,240.182659 C135.817809,239.891828 135.537458,239.594306 135.261839,239.293243 C132.857761,236.671433 130.96628,233.668669 129.893771,230.25701 C129.325971,228.450629 129.016048,226.59781 128.913528,224.728855 C128.620165,219.376222 130.062139,213.885061 132.293117,208.938962 C133.823809,205.545406 135.704249,202.333276 137.668677,199.164435 C139.085415,196.879501 140.545132,194.617 141.951224,192.325375 C142.430304,191.544185 142.90347,190.759058 143.36599,189.968422 C148.128012,181.83538 151.812792,173.076991 154.187297,163.973856 C156.514486,155.050177 157.583446,145.831339 159.997382,136.936389 C160.136966,136.423204 160.278521,135.910412 160.427174,135.399588 C163.112786,126.174059 167.511258,117.4932 173.22671,109.752524 C184.137918,94.9752272 199.848607,83.6237574 217.597854,78.4482208 C227.94836,75.4301088 238.774399,74.4104285 249.538137,73.6748891 C273.427896,72.0440304 297.41071,71.7465088 321.334379,72.7835052 C323.41,72.8736274 325.502971,72.9775238 327.57189,73.2077488 C329.641203,73.4379738 331.685674,73.794921 333.664691,74.3915382 C334.22973,74.5619441 334.790037,74.7516337 335.343642,74.9637556 C336.02855,75.2262514 336.695319,75.523773 337.3475,75.8480557 C338.588772,76.4647439 339.774053,77.1841478 340.907286,77.9834417 C340.93055,77.9216549 340.960911,77.8657712 340.982992,77.8035908 L341.295676,77.2443605 C329.418026,55.5016756 303.501934,45.5559557 279.111803,40.3202063 C268.558229,38.0545562 257.717207,36.3367236 246.986195,37.5327129 C237.868286,38.5484577 229.133641,41.6326856 220.494418,44.6940877 C208.555257,48.924718 196.6157,53.1561354 184.676144,57.3867657 C177.978479,59.7610348 171.263465,62.1451426 164.703412,64.8625846 L164.703412,64.8629782 L164.703412,64.8629782 L164.703806,64.8629782 C161.384941,91.8036319 144.843057,114.688784 121.702478,126.96627 C110.111882,133.115835 96.8671764,136.606991 82.7956131,136.606991 C63.062224,136.606991 44.952583,129.745499 30.7548421,118.303907 C30.7548421,118.303907 30.7544478,118.303907 30.7544478,118.303907 L30.7544478,118.303907 C29.2963078,120.157513 28.0025931,122.151222 26.916677,124.305892 C19.7773903,138.471223 23.3663546,156.0002 31.5560699,169.596462 C39.7457852,183.193511 51.9483427,193.857454 63.275543,205.026318 C74.6039263,216.195182 85.5383988,228.617887 90.0520084,243.806833 C92.6974008,252.710834 92.9927352,262.126053 94.9402077,271.204395 C96.8892575,280.283131 100.960062,289.561395 108.882045,294.517726 C118.507425,300.538602 131.568778,298.487828 141.152362,292.401624 C150.735551,286.314632 157.575166,276.889182 164.033488,267.602259 C166.35003,264.271277 168.661052,260.873393 170.901493,257.414114 C164.667136,254.588447 158.03256,252.628976 151.696867,249.994966 C150.791937,249.618342 149.892921,249.228337 149.002186,248.820229 C146.1348,247.505782 143.30369,245.928839 140.711923,244.072084" id="Fill-48" fill="#7ECAA7"></path>
                <path d="M164.624973,64.243892 L164.624973,64.243892 L164.624973,64.243892 Z" id="Fill-50" fill="#7ECAA7"></path>
                <path d="M125.899863,85.4290466 C123.923835,86.4364475 121.91283,87.3740718 119.853093,88.2137708 C118.948396,88.5828737 118.036625,88.9289819 117.120531,89.2588354 C117.032498,89.2909485 116.944858,89.3246475 116.856432,89.3563641 C116.770757,89.3868914 116.68351,89.41504 116.597049,89.4455673 C108.811233,92.1843024 100.657564,93.6052095 92.4209721,94.751371 C84.7782098,95.815069 77.0647067,96.6440637 69.5072265,98.0729 C68.3985603,98.2826265 67.285964,98.5133653 66.1729747,98.7611519 C52.7652266,101.750845 39.2698385,107.60614 31.1181352,118.080177 C45.2690551,129.606413 63.3197606,136.51827 82.9880735,136.51827 C97.0128389,136.51827 110.213474,133.001287 121.765846,126.806624 C144.830113,114.438309 161.317053,91.3838527 164.624973,64.243892 C159.930925,66.2099295 155.315478,68.34803 150.845443,70.7854567 C142.382087,75.4006297 134.463435,81.0652282 125.899863,85.4290466" id="Fill-52" fill="#FAC9D7"></path>
                <path d="M116.311942,89.3835188 C116.398683,89.3531592 116.485819,89.3251653 116.572167,89.2948057 C116.485819,89.3251653 116.398683,89.3531592 116.311942,89.3835188" id="Fill-54" fill="#FAC9D7"></path>
                <path d="M125.476351,85.323919 C123.442937,86.3801026 121.373529,87.3631305 119.254378,88.2434913 C118.323003,88.6304677 117.384753,88.9933359 116.442054,89.3391623 C117.384753,88.9933359 118.323003,88.6304677 119.253974,88.2434913 C121.373529,87.3631305 123.442937,86.3801026 125.476351,85.323919" id="Fill-56" fill="#FAC9D7"></path>
                <path d="M92.3505947,94.3582163 C84.7515839,95.4233634 77.0814521,96.2534873 69.5668487,97.6838731 C68.4644724,97.8938853 67.3581884,98.1253355 66.2515136,98.3734596 C67.3581884,98.1253355 68.4640817,97.8942823 69.566458,97.6842701 C77.0814521,96.2534873 84.7511931,95.4233634 92.3505947,94.3582163" id="Fill-58" fill="#FAC9D7"></path>
                <path d="M121.461108,126.480162 C144.689154,114.176782 161.293563,91.2422324 164.624973,64.243892 L164.624973,64.243892 C161.293167,91.2422324 144.689154,114.176387 121.461108,126.480162" id="Fill-60" fill="#FAC9D7"></path>
                <path d="M292.226295,163.722388 C330.021312,163.722388 362.412193,186.605825 376.0413,219.135804 C376.074445,219.066555 376.110351,218.998879 376.141129,218.924908 C376.553857,217.930232 376.459947,216.80296 376.249637,215.747691 C374.998826,209.481786 372.06593,200.746112 369.294811,194.977939 C364.901978,185.830702 364.174771,179.0289 365.17542,168.949155 C368.051102,139.967822 367.270628,108.144503 349.018648,85.3047406 C346.627113,82.312058 343.898214,79.4968275 340.771186,77.2934325 C337.037297,87.2063491 326.890338,90.4181908 317.051938,94.6837274 C293.804605,104.763473 274.332592,123.133098 263.045697,145.632908 C257.749676,156.189138 251.825092,169.427607 239.949882,170.296374 C239.065239,170.361295 238.197563,170.350672 237.346459,170.273553 C236.852053,170.229092 236.36396,170.157875 235.879814,170.069739 C235.808395,170.056755 235.735398,170.047312 235.66398,170.03354 C228.492136,168.632811 222.442866,162.674988 216.753055,157.497797 C216.509996,157.277457 216.268514,157.057905 216.027427,156.840713 C209.031565,150.537823 198.26354,145.149735 190.658845,150.718423 C186.069906,154.0786 184.693619,160.208366 184.712165,165.923815 C184.712954,166.304688 184.720451,166.683987 184.733472,167.060531 C185.124893,178.308862 189.180362,189.165304 189.905991,200.397504 C189.907569,200.4278 189.907963,200.458097 189.909936,200.488394 C191.179293,220.616013 181.828986,239.43458 170.647838,256.685589 C171.863137,257.236438 173.067783,257.810501 174.24757,258.438075 C184.493963,263.893838 192.728799,272.454028 201.523936,280.063216 L201.523936,253.498142 C201.523936,203.916247 242.132686,163.722388 292.226295,163.722388" id="Fill-62" fill="#F4C0D9"></path>
                <path d="M189.696864,200.623752 C189.694894,200.593372 189.694501,200.562992 189.692531,200.532612 C188.968183,189.269508 184.920265,178.383196 184.529535,167.103916 C184.516537,166.726335 184.509053,166.346388 184.507872,165.964073 C184.489359,160.232503 185.863611,154.086266 190.443663,150.716844 C198.035725,145.132835 208.784746,150.535747 215.767867,156.855979 C216.008923,157.073768 216.249978,157.293925 216.492215,157.514871 C222.172377,162.706307 228.210184,168.680522 235.370158,170.085105 C235.44145,170.098914 235.513925,170.108383 235.585611,170.121403 C236.06851,170.209782 236.556135,170.281194 237.049668,170.325778 C237.89927,170.403109 238.765021,170.413762 239.647709,170.348662 C251.502354,169.477504 257.416876,156.202611 262.703551,145.617337 C273.970132,123.055621 293.408174,104.635454 316.614479,94.5279752 C326.434727,90.2507024 336.564566,87.0300237 340.291865,77.0898328 L340.291865,77.0898328 L340.291865,77.0898328 C340.291865,77.0898328 340.291865,77.0898328 340.291865,77.0898328 L340.291865,77.0898328 C339.159456,76.2885099 337.975449,75.5672799 336.735905,74.9490264 C336.084031,74.6239205 335.417978,74.3256438 334.7342,74.0624816 C334.180797,73.8498213 333.621091,73.6592556 333.05666,73.4884172 C331.079769,72.8902855 329.037495,72.5328269 326.9708,72.301623 C324.904104,72.0708136 322.812989,71.967048 320.739597,71.876697 C296.841637,70.8366738 272.884595,71.1353451 249.020902,72.7703436 C238.268337,73.5073554 227.453932,74.5300186 217.114547,77.5557915 C199.384374,82.7444655 183.690568,94.1243547 172.791085,108.939556 C167.081775,116.69988 162.688029,125.402775 160.005304,134.651721 C159.85681,135.163842 159.715407,135.677935 159.575973,136.192029 C157.165026,145.109951 156.097213,154.35219 153.772526,163.298125 C151.400573,172.424368 147.719358,181.205383 142.962847,189.35907 C142.500431,190.151713 142.028167,190.938437 141.549207,191.722006 C140.145021,194.019447 138.686478,196.287692 137.271263,198.578031 C135.308946,201.754915 133.430526,204.975199 131.902267,208.376974 C129.673292,213.336417 128.232475,218.841122 128.525522,224.207342 C128.627931,226.081041 128.937522,227.938563 129.505105,229.749529 C130.576068,233.170243 132.465517,236.180234 134.867011,238.809094 C135.142334,239.110527 135.422384,239.408803 135.710705,239.700373 C135.729217,239.718917 135.748124,239.737066 135.766636,239.755609 C136.551642,240.544701 137.382337,241.297495 138.250452,242.013596 C138.52932,242.243616 138.812914,242.468902 139.09966,242.691426 C139.49748,243.00075 139.90042,243.30455 140.311239,243.599671 C142.90022,245.461533 145.728288,247.042084 148.592987,248.359868 C149.482371,248.769012 150.380814,249.160401 151.284772,249.537587 C157.613262,252.178283 164.240709,254.143122 170.46876,256.975568 C181.630175,239.677095 190.963192,220.80675 189.696864,200.623752" id="Fill-64" fill="#8B2164"></path>
                <path d="M138.525892,241.918406 C138.855529,242.259047 139.191219,242.592092 139.529703,242.922216 C139.191219,242.592092 138.855529,242.259047 138.525892,241.918406" id="Fill-66" fill="#8B2164"></path>
                <path d="M333.26519,74.2820001 C331.308762,73.7760901 329.287627,73.4734118 327.242325,73.2781893 C329.287627,73.4737455 331.308762,73.7760901 333.26519,74.2820001" id="Fill-68" fill="#8B2164"></path>
                <path d="M135.542453,239.938384 C135.523922,239.919852 135.504997,239.90211 135.486466,239.883184 C135.504997,239.90211 135.523922,239.919852 135.542453,239.938384" id="Fill-70" fill="#8B2164"></path>
                <path d="M341.295676,77.2934325 L341.295676,77.2934325 C340.01731,76.5415919 338.68023,75.8656014 337.280433,75.2858109 C338.68023,75.8656014 340.01731,76.5419619 341.295676,77.2934325" id="Fill-72" fill="#8B2164"></path>
                <path d="M141.537324,191.727865 C140.219245,194.082491 138.850143,196.407194 137.522081,198.754541 C138.850143,196.407194 140.219615,194.082491 141.537324,191.727865" id="Fill-74" fill="#8B2164"></path>
                <path d="M140.533514,243.926027 C143.138723,245.814125 145.984517,247.417688 148.866776,248.754324 C149.762131,249.169321 150.665809,249.56591 151.575433,249.948892 C150.665809,249.56591 149.762131,249.169321 148.866776,248.753924 C145.984517,247.417688 143.138723,245.814125 140.533514,243.926027" id="Fill-76" fill="#8B2164"></path>
                <path d="M159.605919,136.51827 C159.743606,136.006614 159.883238,135.495742 160.029871,134.986439 C162.678596,125.787999 167.017682,117.132997 172.65546,109.415378 C167.017682,117.132997 162.678596,125.787999 160.029871,134.986047 C159.883238,135.495349 159.743606,136.006614 159.605919,136.51827" id="Fill-78" fill="#8B2164"></path>
                <path d="M134.510649,238.906973 C132.229816,236.196123 130.435302,233.092253 129.418148,229.564852 C128.879083,227.697404 128.585048,225.782355 128.487784,223.849811 C128.585048,225.782355 128.879083,227.697404 129.418148,229.565259 C130.435302,233.092253 132.229816,236.196123 134.510649,238.906973" id="Fill-80" fill="#8B2164"></path>
                <path d="M316.580005,94.7414865 C293.339913,104.85471 273.87357,123.285347 262.590586,145.859887 C257.296214,156.451177 251.373081,169.733616 239.50157,170.605269 C238.617597,170.670011 237.750191,170.659747 236.899352,170.582372 C237.750191,170.659747 238.617597,170.670011 239.501964,170.605269 C251.373475,169.733616 257.296214,156.451177 262.590586,145.859887 C273.873964,123.285347 293.339913,104.85471 316.580005,94.7414865 C326.415341,90.4617826 336.55914,87.2392733 340.291865,77.2934325 L340.291865,77.2934325 C336.55914,87.2392733 326.414946,90.4617826 316.580005,94.7414865" id="Fill-82" fill="#8B2164"></path>
                <path d="M190.662668,150.960858 C186.062543,154.424001 184.682782,160.741602 184.701189,166.632595 C184.682782,160.741602 186.062543,154.424001 190.663064,150.960858 C198.286953,145.221529 209.082156,150.77513 216.095676,157.271159 C216.337371,157.494601 216.579858,157.720881 216.823135,157.947972 C216.579858,157.720881 216.337371,157.494601 216.095676,157.270753 C209.082156,150.774724 198.286953,145.221529 190.662668,150.960858" id="Fill-84" fill="#8B2164"></path>
                <path d="M236.003376,170.666172 C235.931617,170.653161 235.85907,170.643304 235.787705,170.629504 C235.85907,170.643304 235.931617,170.653161 236.003376,170.666172" id="Fill-86" fill="#8B2164"></path>
                <path d="M189.606325,200.762162 C190.854897,220.895588 181.652747,239.719583 170.647838,256.975568 C181.652747,239.719583 190.855674,220.895588 189.606325,200.762162" id="Fill-88" fill="#8B2164"></path>
                <path d="M364.211239,223.21032 C360.081193,225.339022 360.557631,231.226071 361.312351,235.784001 C362.06707,240.342322 361.397945,246.543968 356.829372,247.424446 C355.147962,247.748812 353.43763,247.158309 351.72847,247.054356 C347.165368,246.777277 343.579376,249.859927 341.295676,253.964135 L382.451919,253.964135 L382.451919,246.864816 C381.695637,237.357763 379.438904,228.26965 375.915057,219.834568 C374.136717,223.498732 367.971938,221.27233 364.211239,223.21032" id="Fill-90" fill="#BAE0CA"></path>
                <path d="M291.78229,186.7549 C296.379404,186.7549 300.658223,188.098752 304.255432,190.404761 C309.503353,193.769538 313.288538,199.191669 314.462202,205.528442 C314.545922,205.978637 314.615426,206.433583 314.672292,206.892884 C314.716917,207.256365 314.752853,207.622223 314.780102,207.990851 C314.822752,208.560623 314.85158,209.133957 314.85158,209.714419 L314.85158,209.714815 C314.85158,222.394697 304.523574,232.673938 291.78229,232.673938 C285.013187,232.673938 278.925298,229.772817 274.705716,225.151693 C270.981741,221.074206 268.71221,215.658411 268.71221,209.714419 C268.71221,197.034537 279.041006,186.7549 291.78229,186.7549 L291.78229,186.7549 Z M341.449365,253.964135 C343.756808,249.805479 347.380081,246.682231 351.990226,246.962959 C353.717155,247.068281 355.445269,247.666561 357.144554,247.337923 C361.760624,246.445849 362.43631,240.162529 361.674139,235.544571 C360.911968,230.926218 360.429787,224.961637 364.603165,222.804901 C368.402962,220.841388 374.631437,223.097111 376.429054,219.38469 C362.788567,186.649181 330.370641,163.621162 292.544066,163.621162 C242.408631,163.621162 201.765973,204.068973 201.765973,253.964135 L201.765973,253.964135 L201.765973,253.964135 L341.449365,253.964135 Z" id="Fill-92" fill="#5FC6CB"></path>
                <path d="M268.017487,209.796858 C268.017487,215.773726 270.288805,221.220237 274.015315,225.320151 C278.238615,229.966747 284.331296,232.884108 291.105333,232.884108 C303.856252,232.884108 314.192784,222.547324 314.192784,209.796858 C314.192784,209.212748 314.163933,208.636204 314.12125,208.063244 C314.09398,207.692551 314.058015,207.324646 314.013355,206.95913 C313.956444,206.497257 313.886885,206.039765 313.803099,205.58705 C312.628511,199.214803 308.839951,193.76232 303.588294,190.378706 C299.988648,188.059788 295.706066,186.708811 291.105333,186.708811 C278.354019,186.708811 268.017487,197.045595 268.017487,209.796858" id="Fill-94" fill="#FDFADD"></path>
                <path d="M314.138965,206.785027 C314.183519,207.117338 314.219398,207.451821 314.246603,207.788838 C314.219398,207.451821 314.183519,207.117338 314.138965,206.785027" id="Fill-96" fill="#FDFADD"></path>
                <path d="M291.11972,232.884108 C284.349904,232.884108 278.26102,229.966747 274.040352,225.320151 C278.260625,229.966747 284.349509,232.884108 291.11972,232.884108 C303.863088,232.884108 314.192784,222.547722 314.192784,209.796858 L314.192784,209.79646 C314.192784,222.547324 303.862693,232.884108 291.11972,232.884108" id="Fill-98" fill="#FDFADD"></path>
                <path d="M314.192784,205.781216 C313.038514,199.472314 309.315878,194.074032 304.154676,190.724054 C309.315489,194.074032 313.038514,199.472314 314.192784,205.781216" id="Fill-100" fill="#FDFADD"></path>
                <path d="M227.320699,295.120379 C227.816946,295.117036 228.313192,295.075483 228.807466,294.987628 C229.094248,294.936578 229.367618,294.840016 229.633098,294.717336 C229.672545,294.699528 229.71357,294.686468 229.752623,294.667077 C229.763274,294.661536 229.77353,294.654413 229.784181,294.648873 C231.879225,293.572452 233.38611,290.521671 235.463798,289.131426 C243.133923,280.389467 252.992189,276.372282 263.809812,276.471217 C267.415686,276.504064 271.127674,276.994389 274.900804,277.919636 C284.846643,280.358203 293.573955,286.261499 303.198298,289.726228 C303.840105,289.956946 304.485463,290.177374 305.135948,290.384744 C306.111084,290.696193 307.11265,290.968464 308.132362,291.199182 C315.83089,292.940847 324.533745,292.288662 330.440184,287.914913 C332.095391,286.689297 333.534427,285.175976 334.665775,283.335377 C338.503993,277.093721 337.64996,269.205775 338.651526,261.95537 C338.976966,259.593973 339.710685,257.134035 340.804952,254.90442 C340.960769,254.585847 341.124475,254.272419 341.295676,253.964135 L341.295676,253.964135 L341.295676,253.964135 L201.765973,253.964135 L201.765973,280.683108 C207.670834,285.82262 213.826974,290.531564 221.017026,293.572452 C223.020158,294.419342 225.170429,295.133262 227.320699,295.120379" id="Fill-102" fill="#E86772"></path>
                <mask id="mask-4" fill="white">
                    <use xlink:href="#path-3"></use>
                </mask>
                <g id="Clip-105"></g>
                <polygon id="Fill-104" fill="#E86772" mask="url(#mask-4)" points="201.765973 253.964135 341.295676 253.964135 341.295676 253.964135"></polygon>
                <polygon id="Fill-106" fill="#F7B0BB" mask="url(#mask-4)" points="161.613342 299.135622 152.966922 319.246805 132.503027 327.744427 152.966922 336.241655 161.613342 356.352838 170.260556 336.241655 190.724054 327.744427 170.260556 319.246805"></polygon>
                <path d="M340.51153,254.898411 C339.419965,257.113775 338.687795,259.558384 338.362648,261.904688 C337.363589,269.108359 338.21582,276.94589 334.386095,283.147653 C333.256742,284.976489 331.820742,286.480137 330.169028,287.698313 C324.275054,292.044108 315.590172,292.691731 307.908284,290.961198 C306.890724,290.731955 305.891272,290.461424 304.9178,290.151965 C304.269081,289.945921 303.624692,289.726901 302.984239,289.497658 C293.380601,286.055074 284.671312,280.189508 274.746857,277.766527 C270.981295,276.847194 267.277141,276.360395 263.678877,276.327365 C252.88487,276.229062 243.047016,280.220572 235.392683,288.906658 C233.319774,290.288017 231.816069,293.319693 229.725446,294.38884 C229.714424,294.394345 229.704583,294.401423 229.693561,294.406928 C229.654984,294.426195 229.613652,294.439171 229.574682,294.457259 C229.309762,294.578762 229.037363,294.674706 228.750793,294.725431 C228.257168,294.812724 227.761969,294.854012 227.266769,294.857157 C225.121037,294.870133 222.974911,294.16117 220.9764,293.319299 C213.801521,290.297847 207.658373,285.619 201.765973,280.512337 L201.765973,422.604352 L237.225865,422.604352 L237.225865,398.58294 L261.452842,398.58294 L261.452842,374.561529 L285.679425,374.561529 L285.679425,350.540118 L309.906402,350.540118 L309.906402,326.5191 L334.132985,326.5191 L334.132985,302.497688 L358.360355,302.497688 L358.360355,278.476277 L382.451919,278.476277 L382.451919,253.964135 L341.001218,253.964135 C340.830772,254.270449 340.667411,254.581874 340.51153,254.898411" id="Fill-107" fill="#F8D87F" mask="url(#mask-4)"></path>
                <path d="M303.150865,290.101325 C293.591671,286.566705 284.92308,280.543638 275.044162,278.055595 C284.922689,280.543638 293.591671,286.566705 303.150865,290.101325" id="Fill-108" fill="#F8D87F" mask="url(#mask-4)"></path>
                <path d="M229.888447,294.107499 C229.877802,294.113019 229.86755,294.120511 229.856905,294.125636 C229.86755,294.120511 229.877802,294.113019 229.888447,294.107499" id="Fill-109" fill="#F8D87F" mask="url(#mask-4)"></path>
                <path d="M308.169919,291.249552 C315.791149,292.922734 324.406623,292.296432 330.253757,288.093703 C324.406623,292.296432 315.791149,292.922734 308.169919,291.249552" id="Fill-110" fill="#F8D87F" mask="url(#mask-4)"></path>
                <path d="M264.002244,277.051784 C267.592163,277.074548 271.287726,277.414363 275.044162,278.055595 C271.287726,277.414363 267.592163,277.074548 264.002244,277.051784" id="Fill-111" fill="#F8D87F" mask="url(#mask-4)"></path>
                <path d="M226.861243,295.321067 C227.292084,295.317913 227.722925,295.276514 228.152396,295.188983 C228.401379,295.138121 228.638376,295.041917 228.868865,294.91969 C228.638376,295.041917 228.401037,295.138121 228.152053,295.188983 C227.722925,295.276514 227.292084,295.317913 226.861243,295.321067" id="Fill-112" fill="#F8D87F" mask="url(#mask-4)"></path>
            </g>
        </g>
    </g>
</svg>