<?xml version="1.0" encoding="UTF-8"?>
<svg width="1309px" height="588px" viewBox="0 0 1309 588" version="1.1" xmlns="http://www.w3.org/2000/svg" xmlns:xlink="http://www.w3.org/1999/xlink">
    <title>Group 55 Copy</title>
    <g id="Chronnect" stroke="none" stroke-width="1" fill="none" fill-rule="evenodd">
        <g id="Group-55-Copy" transform="translate(-0.000187, 0.000047)">
            <polygon id="Fill-14" fill="#FFFFFF" points="1308.16731 465.503019 1308.16731 587.017101 1308.57202 587.017101 1308.57202 302.496768 1308.16731 302.496768"></polygon>
            <path d="M545.787947,173.692757 C676.478115,199.145119 773.625449,294.746983 773.626384,408.799625 L773.626384,408.800092 L773.626384,408.80056 C773.625917,429.151514 770.527498,448.913629 764.703126,467.796222 C784.012395,479.647322 804.220345,489.947344 825.184908,498.330832 L825.184908,302.496768 C825.184908,220.423262 866.095714,147.908121 928.634229,104.22229 C887.065417,95.6869186 849.100211,77.0328508 825.774682,38.2946758 C817.640749,24.7864127 809.350728,11.9941039 800.942471,0 L540.133684,0 C525.329974,56.3257886 532.597471,120.685968 545.787947,173.692757" id="Fill-17" fill="#FFFFFF"></path>
            <path d="M545.787947,173.692757 C676.478115,199.145119 773.625449,294.746983 773.626384,408.799625 L773.626384,408.800092 L773.626384,408.80056 C773.625917,429.151514 770.527498,448.913629 764.703126,467.796222 C784.012395,479.647322 804.220345,489.947344 825.184908,498.330832 L825.184908,302.496768 C825.184908,220.423262 866.095714,147.908121 928.634229,104.22229 C887.065417,95.6869186 849.100211,77.0328508 825.774682,38.2946758 C817.640749,24.7864127 809.350728,11.9941039 800.942471,0 L540.133684,0 C525.329974,56.3257886 532.597471,120.685968 545.787947,173.692757" id="Fill-19" fill="#7ECAA7"></path>
            <path d="M764.702939,467.796129 C657.465883,401.980207 577.916443,288.359848 550.090029,189.888559 C548.603442,184.628725 547.163589,179.221681 545.78776,173.692663 C523.482886,169.348802 500.203156,167.044383 476.260279,167.044383 C469.976986,167.044383 463.739958,167.204678 457.553403,167.516857 C466.974838,184.168869 473.060917,202.867801 472.327204,222.68179 C473.689012,259.466045 451.551444,292.41443 428.193668,315.534333 C404.22836,339.574882 379.043312,353.786949 360.236426,374.408489 C339.61068,393.220048 325.377583,418.426126 301.326285,442.401716 C278.197971,465.768371 245.251455,487.903135 208.467199,486.541794 C203.692925,486.718446 198.984076,486.495995 194.351871,485.930055 C210.544962,525.064061 238.722344,559.719147 275.335088,587.017008 L677.18547,587.017008 C719.359945,555.572968 750.337587,514.36447 764.702939,467.796129" id="Fill-21" fill="#FFFFFF"></path>
            <path d="M764.702939,467.796129 C657.465883,401.980207 577.916443,288.359848 550.090029,189.888559 C548.603442,184.628725 547.163589,179.221681 545.78776,173.692663 C523.482886,169.348802 500.203156,167.044383 476.260279,167.044383 C469.976986,167.044383 463.739958,167.204678 457.553403,167.516857 C466.974838,184.168869 473.060917,202.867801 472.327204,222.68179 C473.689012,259.466045 451.551444,292.41443 428.193668,315.534333 C404.22836,339.574882 379.043312,353.786949 360.236426,374.408489 C339.61068,393.220048 325.377583,418.426126 301.326285,442.401716 C278.197971,465.768371 245.251455,487.903135 208.467199,486.541794 C203.692925,486.718446 198.984076,486.495995 194.351871,485.930055 C210.544962,525.064061 238.722344,559.719147 275.335088,587.017008 L677.18547,587.017008 C719.359945,555.572968 750.337587,514.36447 764.702939,467.796129" id="Fill-23" fill="#7ECAA7"></path>
            <path d="M1066.87828,60.8037744 C1015.46743,60.8037744 967.808332,76.8580682 928.634603,104.22229 C976.954508,114.143772 1030.14496,110.392489 1070.87631,108.612417 C1130.46455,106.008437 1287.96842,168.974562 1241.26969,323.2529 C1198.95081,463.067746 1031.41751,552.836826 871.546127,513.312129 C855.734846,509.402888 840.264718,504.360831 825.184814,498.330832 L825.184814,587.017101 L1308.16749,587.017101 L1308.16749,465.503019 L1308.16749,302.496768 L1308.57174,302.496768 C1308.57174,169.012416 1200.36263,60.8037744 1066.87828,60.8037744" id="Fill-31" fill="#FFFFFF"></path>
            <path d="M1066.87828,60.8037744 C1015.46743,60.8037744 967.808332,76.8580682 928.634603,104.22229 C976.954508,114.143772 1030.14496,110.392489 1070.87631,108.612417 C1130.46455,106.008437 1287.96842,168.974562 1241.26969,323.2529 C1198.95081,463.067746 1031.41751,552.836826 871.546127,513.312129 C855.734846,509.402888 840.264718,504.360831 825.184814,498.330832 L825.184814,587.017101 L1308.16749,587.017101 L1308.16749,465.503019 L1308.16749,302.496768 L1308.57174,302.496768 C1308.57174,169.012416 1200.36263,60.8037744 1066.87828,60.8037744" id="Fill-34" fill="#7ECAA7"></path>
            <path d="M56.7403131,374.45111 C77.3618533,393.257528 91.5734527,418.443044 115.614469,442.407885 C135.733626,462.73407 163.296465,482.133067 194.352151,485.929681 C184.329258,461.706872 178.894174,435.769885 178.894174,408.80056 L178.894174,408.800092 L178.894174,408.799625 C178.895109,280.390043 302.038314,175.365342 457.553683,167.51695 C449.483775,153.254411 438.967846,140.492946 428.187406,129.82233 C404.211816,105.771032 379.005271,91.5379354 360.194647,70.9117219 C339.572639,52.1053035 325.360572,26.9202556 301.320023,2.95494716 C300.342362,1.967005 299.345074,0.981866833 298.33283,2.27373675e-13 L118.603064,2.27373675e-13 C117.588017,0.984203499 116.588859,1.97214566 115.608394,2.96242449 C91.557096,26.9380143 77.3239993,52.1445594 56.6977858,70.9551839 C40.8206112,88.3647437 20.3976876,101.206122 0,119.249386 L0,326.115783 C20.4126423,344.17587 40.8561285,357.03454 56.7403131,374.45111" id="Fill-43" fill="#FFFFFF"></path>
            <path d="M56.7403131,374.45111 C77.3618533,393.257528 91.5734527,418.443044 115.614469,442.407885 C135.733626,462.73407 163.296465,482.133067 194.352151,485.929681 C184.329258,461.706872 178.894174,435.769885 178.894174,408.80056 L178.894174,408.800092 L178.894174,408.799625 C178.895109,280.390043 302.038314,175.365342 457.553683,167.51695 C449.483775,153.254411 438.967846,140.492946 428.187406,129.82233 C404.211816,105.771032 379.005271,91.5379354 360.194647,70.9117219 C339.572639,52.1053035 325.360572,26.9202556 301.320023,2.95494716 C300.342362,1.967005 299.345074,0.981866833 298.33283,2.27373675e-13 L118.603064,2.27373675e-13 C117.588017,0.984203499 116.588859,1.97214566 115.608394,2.96242449 C91.557096,26.9380143 77.3239993,52.1445594 56.6977858,70.9551839 C40.8206112,88.3647437 20.3976876,101.206122 0,119.249386 L0,326.115783 C20.4126423,344.17587 40.8561285,357.03454 56.7403131,374.45111" id="Fill-46" fill="#7ECAA7"></path>
        </g>
    </g>
</svg>