<?xml version="1.0" encoding="UTF-8"?>
<svg width="497px" height="497px" viewBox="0 0 497 497" version="1.1" xmlns="http://www.w3.org/2000/svg" xmlns:xlink="http://www.w3.org/1999/xlink">
    <title>Artboard</title>
    <g id="Artboard" stroke="none" stroke-width="1" fill="none" fill-rule="evenodd">
        <path d="M494.209445,261.507098 C485.183347,208.178703 460.249696,156.918296 426.090485,118.050098 C373.932717,58.7017845 296.35605,27.8188345 221.876919,36.7529893 C147.398626,45.6871441 77.6470914,94.243258 38.2624658,164.572444 C11.0903092,213.093413 -11.6484162,276.832041 6.53451853,333.709127 C15.5287689,361.841541 35.4037826,384.767914 58.8448172,399.626727 C93.4121719,421.538527 124.265166,420.174358 161.665223,421.975062 C187.71687,423.229173 213.672976,426.916593 239.163111,432.985529 C293.375846,445.89381 372.067994,478.14278 426.033496,453.484142 C447.94001,443.474375 466.485833,424.591493 476.925767,401.09818 C478.939668,396.564513 480.816124,391.779283 482.548431,386.794284 C495.757374,348.783432 500.586378,299.181301 494.209445,261.507098 Z" id="Fill-1-Copy" fill="#7ECAA7"></path>
    </g>
</svg>