<?xml version="1.0" encoding="UTF-8"?>
<svg width="497px" height="497px" viewBox="0 0 497 497" version="1.1" xmlns="http://www.w3.org/2000/svg" xmlns:xlink="http://www.w3.org/1999/xlink">
    <title>Artboard Copy 5</title>
    <g id="Artboard-Copy-5" stroke="none" stroke-width="1" fill="none" fill-rule="evenodd">
        <path d="M476.365157,291.747074 C468.927368,306.232984 458.712607,318.594969 448.003839,329.136254 C425.983905,350.153316 403.712748,364.4346 386.336072,382.365725 C368.434661,399.714375 354.150677,421.983169 333.126185,443.961569 C322.598744,454.714571 310.234396,464.928657 295.747473,472.36577 C281.385149,479.797819 264.899576,484.453232 248.999855,483.965303 C233.100472,484.453232 216.614561,479.797819 202.252913,472.365433 C187.767341,464.927644 175.405356,454.71322 164.864071,444.004453 C143.847008,421.984519 129.565725,399.713362 111.635275,382.336348 C94.2862877,364.434938 72.0178315,350.150953 50.0390934,329.126124 C39.2857535,318.598683 29.0720053,306.234672 21.6342167,291.747749 C14.202506,277.385426 9.54709257,260.899853 10.0350212,245.000132 C9.54675491,229.100411 14.2018307,212.614838 21.6342167,198.253189 C29.0720053,183.766942 39.2867665,171.405295 49.9951967,160.864009 C72.0154678,139.846609 94.2866254,125.565663 111.663639,107.634538 C129.565387,90.2858885 143.849034,68.0170946 164.873863,46.0390318 C175.401642,35.285692 187.765315,25.0719438 202.252238,17.6344928 C216.614899,10.2027821 233.100472,5.54703102 248.999855,6.03495968 C264.900252,5.54703102 281.385825,10.2027821 295.747135,17.6348305 C310.233045,25.0726191 322.59503,35.2873803 333.136653,45.9958105 C354.153378,68.0157439 368.434661,90.2872392 386.365787,107.663915 C403.714774,125.565663 425.983568,139.84931 447.96163,160.874477 C458.714633,171.401918 468.928719,183.765591 476.365494,198.252514 C483.797542,212.615175 488.452956,229.100411 487.965027,245.000132 C488.452956,260.899853 483.797205,277.385426 476.365157,291.747074 Z" id="Fill-1-Copy" fill="#92CB77" transform="translate(249.000000, 245.000133) rotate(90.000000) translate(-249.000000, -245.000133) "></path>
    </g>
</svg>