<?xml version="1.0" encoding="UTF-8"?>
<svg width="442px" height="381px" viewBox="0 0 442 381" version="1.1" xmlns="http://www.w3.org/2000/svg" xmlns:xlink="http://www.w3.org/1999/xlink">
    <title>Fill 1</title>
    <g id="Chronnect" stroke="none" stroke-width="1" fill="none" fill-rule="evenodd">
        <g id="About" transform="translate(-87.000000, -1260.000000)" fill="#7ECAA7">
            <path d="M526.518259,1462.10925 C518.491025,1414.68239 496.316631,1369.09466 465.937615,1334.52777 C419.551833,1281.74718 350.560109,1254.28186 284.323135,1262.22732 C218.086907,1270.17279 156.054355,1313.35549 121.028189,1375.90177 C96.8630114,1419.05321 76.6406439,1475.73827 92.8113827,1526.32111 C100.810293,1551.34028 118.485859,1571.72953 139.332815,1584.94401 C170.074809,1604.43096 197.513488,1603.21776 230.774706,1604.81919 C253.943374,1605.93451 277.027073,1609.21387 299.696368,1614.61119 C347.909706,1626.09099 417.893467,1654.77116 465.886932,1632.84135 C485.369184,1623.9393 501.862652,1607.14607 511.147262,1586.25262 C512.938296,1582.22067 514.607096,1577.96499 516.147699,1573.53165 C527.894888,1539.72723 532.189495,1495.61427 526.518259,1462.10925 Z" id="Fill-1"></path>
        </g>
    </g>
</svg>