<?xml version="1.0" encoding="UTF-8"?>
<svg width="442px" height="442px" viewBox="0 0 442 442" version="1.1" xmlns="http://www.w3.org/2000/svg" xmlns:xlink="http://www.w3.org/1999/xlink">
    <title>Fill 1</title>
    <g id="Chronnect" stroke="none" stroke-width="1" fill="none" fill-rule="evenodd">
        <g id="About" transform="translate(-911.000000, -2773.000000)" fill="#92CB77">
            <path d="M1342.24142,3037.22638 C1335.3638,3050.6213 1325.91835,3062.05226 1316.0161,3071.79964 C1295.65457,3091.23383 1275.06074,3104.43954 1258.99277,3121.0202 C1242.43958,3137.06226 1229.23138,3157.6539 1209.79032,3177.97703 C1200.05574,3187.92018 1188.6226,3197.365 1175.22674,3204.242 C1161.9461,3211.11431 1146.70212,3215.41911 1131.99987,3214.96793 C1117.29793,3215.41911 1102.05363,3211.11431 1088.77361,3204.24169 C1075.37901,3197.36407 1063.94805,3187.91893 1054.20067,3178.01668 C1034.76648,3157.65515 1021.56077,3137.06132 1004.98074,3120.99303 C988.938366,3104.43985 968.347032,3091.23164 948.023597,3071.79027 C938.080132,3062.0557 928.63562,3050.62287 921.758,3037.22701 C914.885999,3023.94637 910.581203,3008.70238 911.032384,2994.00013 C910.580891,2979.29788 914.885375,2964.0539 921.758,2950.77388 C928.63562,2937.37865 938.081069,2925.948 947.983006,2916.20062 C968.344847,2896.76612 988.938679,2883.56073 1005.00696,2866.98006 C1021.56046,2850.93801 1034.76835,2830.34636 1054.20972,2810.02355 C1063.94461,2800.08008 1075.37713,2790.63557 1088.77299,2783.75826 C1102.05394,2776.88626 1117.29793,2772.58116 1131.99987,2773.03234 C1146.70274,2772.58116 1161.94673,2776.88626 1175.22643,2783.75858 C1188.62135,2790.6362 1200.05231,2800.08165 1209.8,2809.98358 C1229.23388,2830.34511 1242.43958,2850.93926 1259.02025,2867.00723 C1275.06262,2883.56073 1295.65426,2896.76862 1315.97707,2916.2103 C1325.92023,2925.94488 1335.36505,2937.3774 1342.24173,2950.77326 C1349.11405,2964.05421 1353.41884,2979.29788 1352.96766,2994.00013 C1353.41884,3008.70238 1349.11373,3023.94637 1342.24142,3037.22638 Z" id="Fill-1" transform="translate(1132.000000, 2994.000133) rotate(90.000000) translate(-1132.000000, -2994.000133) "></path>
        </g>
    </g>
</svg>