<?xml version="1.0" encoding="UTF-8"?>
<svg width="168px" height="161px" viewBox="0 0 168 161" version="1.1" xmlns="http://www.w3.org/2000/svg" xmlns:xlink="http://www.w3.org/1999/xlink">
    <title>Group 11</title>
    <defs>
        <polygon id="path-1" points="0 0.000309694987 167.97 0.000309694987 167.97 159.994235 0 159.994235"></polygon>
        <polygon id="path-3" points="0.9329 0.7561 63.0159 0.7561 63.0159 19 0.9329 19"></polygon>
    </defs>
    <g id="Chronnect" stroke="none" stroke-width="1" fill="none" fill-rule="evenodd">
        <g id="Vive" transform="translate(-330.000000, -1158.000000)">
            <g id="Post" transform="translate(115.000000, 1136.000000)">
                <g id="Group-11" transform="translate(215.000000, 22.000000)">
                    <g id="Group-3">
                        <mask id="mask-2" fill="white">
                            <use xlink:href="#path-1"></use>
                        </mask>
                        <g id="Clip-2"></g>
                        <path d="M35.5173,25.3721 C27.8463,32.0231 21.1533,39.7881 15.8113,48.4321 C14.1863,51.0601 12.6013,53.8091 11.0993,56.6511 C2.2183,73.4541 -3.7267,93.5491 2.7003,111.7661 C4.5303,116.9531 7.4513,121.6651 11.0993,125.7781 C12.2753,127.1041 13.5263,128.3681 14.8413,129.5641 C16.1573,130.7611 17.5353,131.8911 18.9653,132.9511 C19.3943,133.2681 19.8283,133.5801 20.2663,133.8851 C21.5813,134.7991 22.9333,135.6561 24.3163,136.4501 C28.6233,138.9241 32.7893,140.5951 36.9323,141.7561 C32.5713,135.2381 30.0243,127.4031 30.0243,118.9711 C30.0243,96.3131 48.3933,77.9441 71.0523,77.9441 C93.7113,77.9441 112.0813,96.3131 112.0813,118.9711 C112.0813,130.8231 107.0493,141.4931 99.0153,148.9831 C101.7783,149.5831 104.6923,150.2901 107.7213,151.0521 C121.1413,154.4321 136.8073,158.8981 151.4253,159.8271 C154.9203,160.0481 158.3523,160.0571 161.6823,159.8111 C165.2773,159.0271 167.9703,155.8301 167.9703,152.0001 L167.9703,23.5601 C146.9243,6.2581 118.8103,-2.3789 91.6873,0.5691 C71.0113,2.8171 51.2173,11.7591 35.5173,25.3721 Z" id="Fill-1" fill-opacity="0.4" fill="#FFB9DB" mask="url(#mask-2)"></path>
                    </g>
                    <polygon id="Fill-4" fill="#F8C35B" points="71.0523 160 71.0503 160 71.0563 160"></polygon>
                    <g id="Group-10" transform="translate(30.000000, 77.000000)">
                        <g id="Group-7" opacity="0.4" transform="translate(6.000000, 64.000000)">
                            <mask id="mask-4" fill="white">
                                <use xlink:href="#path-3"></use>
                            </mask>
                            <g id="Clip-6"></g>
                            <path d="M62.8299,7.9421 C57.5629,6.8051 52.2489,5.8921 46.9049,5.2041 C41.5609,4.5161 36.1879,4.0531 30.8059,3.8191 C20.0099,3.3481 10.5329,3.4451 0.9329,0.7561 C8.2909,11.7551 20.8229,18.9991 35.0509,19.0001 L35.0559,19.0001 C45.8619,18.9991 55.6869,14.8131 63.0159,7.9831 C62.9539,7.9691 62.8919,7.9561 62.8299,7.9421" id="Fill-5" fill="#FFB9DB" mask="url(#mask-4)"></path>
                        </g>
                        <path d="M52.9051,69.2039 C58.2491,69.8919 63.5631,70.8059 68.8301,71.9419 C68.8911,71.9559 68.9541,71.9699 69.0151,71.9829 C77.0501,64.4929 82.0811,53.8229 82.0811,41.9719 C82.0811,19.3129 63.7121,0.9439 41.0521,0.9439 C18.3931,0.9439 0.0241,19.3129 0.0241,41.9719 C0.0241,50.4029 2.5711,58.2379 6.9321,64.7569 C16.5331,67.4449 26.0091,67.3489 36.8051,67.8189 C42.1881,68.0539 47.5611,68.5169 52.9051,69.2039" id="Fill-8" fill-opacity="0.6" fill="#FFB9DB"></path>
                    </g>
                </g>
            </g>
        </g>
    </g>
</svg>