<?xml version="1.0" encoding="UTF-8"?>
<svg width="168px" height="144px" viewBox="0 0 168 144" version="1.1" xmlns="http://www.w3.org/2000/svg" xmlns:xlink="http://www.w3.org/1999/xlink">
    <title>Group 10</title>
    <defs>
        <polygon id="path-1" points="6.13228326e-06 0.427450193 167.954 0.427450193 167.954 130.9995 6.13228326e-06 130.9995"></polygon>
        <polygon id="path-3" points="0.1221 0.244 39.954 0.244 39.954 77.5448 0.1221 77.5448"></polygon>
        <polygon id="path-5" points="0.8386 0.4884 81.954 0.4884 81.954 80.0004 0.8386 80.0004"></polygon>
    </defs>
    <g id="Chronnect" stroke="none" stroke-width="1" fill="none" fill-rule="evenodd">
        <g id="Vive" transform="translate(-1157.000000, -1197.000000)">
            <g id="Post-Copy" transform="translate(941.000000, 1136.000000)">
                <g id="Group-10" transform="translate(216.000000, 61.000000)">
                    <g id="Group-3" transform="translate(0.000000, 12.756000)">
                        <mask id="mask-2" fill="white">
                            <use xlink:href="#path-1"></use>
                        </mask>
                        <g id="Clip-2"></g>
                        <path d="M71.0361,130.9995 L159.9541,130.9995 C160.5421,130.9995 161.1141,130.9325 161.6661,130.8125 C165.2611,130.0265 167.9541,126.8295 167.9541,122.9995 L167.9541,100.0005 L86.8631,100.0005 L86.8631,99.9565 L86.8391,99.9565 L128.1221,20.4885 C114.2631,10.6685 98.0451,3.7565 81.7531,1.3585 C81.6211,1.6595 81.4971,1.9645 81.3681,2.2665 C81.4971,1.9645 81.6211,1.6595 81.7531,1.3585 C63.4481,-1.3355 45.0681,1.6455 29.8901,12.5485 C3.8241,31.2725 -4.4519,67.8055 2.1841,99.2055 C4.5251,110.2795 8.3881,120.8455 13.2611,130.9995 L71.0341,130.9995 L71.0361,130.9995 Z" id="Fill-1" fill="#FFDEF4" mask="url(#mask-2)"></path>
                    </g>
                    <g id="Group-6" transform="translate(128.000000, 0.756000)">
                        <mask id="mask-4" fill="white">
                            <use xlink:href="#path-3"></use>
                        </mask>
                        <g id="Clip-5"></g>
                        <path d="M0.1221,32.4888 C5.4951,36.2958 10.5251,40.5248 15.0501,45.1198 C17.2751,47.3788 19.4081,49.7078 21.4761,52.0858 L21.4761,52.0858 C28.3751,60.0208 34.4341,68.5858 39.9541,77.5448 L39.9541,42.9858 L16.8731,0.2438 L0.1221,32.4888 Z" id="Fill-4" fill="#FFDEF4" mask="url(#mask-4)"></path>
                    </g>
                    <g id="Group-9" transform="translate(86.000000, 32.756000)">
                        <mask id="mask-6" fill="white">
                            <use xlink:href="#path-5"></use>
                        </mask>
                        <g id="Clip-8"></g>
                        <path d="M63.4766,20.0854 L63.4756,20.0854 C61.4086,17.7074 59.2756,15.3784 57.0496,13.1194 C52.5256,8.5244 47.4956,4.2954 42.1226,0.4884 L0.8386,79.9564 L0.8636,79.9564 L0.8636,80.0004 L81.9546,80.0004 L81.9546,45.5444 C76.4336,36.5854 70.3746,28.0214 63.4766,20.0854" id="Fill-7" fill="#FFCBF0" mask="url(#mask-6)"></path>
                    </g>
                </g>
            </g>
        </g>
    </g>
</svg>