<?xml version="1.0" encoding="UTF-8"?>
<svg width="169px" height="162px" viewBox="0 0 169 162" version="1.1" xmlns="http://www.w3.org/2000/svg" xmlns:xlink="http://www.w3.org/1999/xlink">
    <title>Group 8</title>
    <defs>
        <polygon id="path-1" points="1.70281964e-05 0.15460318 168.454 0.15460318 168.454 145.4594 1.70281964e-05 145.4594"></polygon>
    </defs>
    <g id="Chronnect" stroke="none" stroke-width="1" fill="none" fill-rule="evenodd">
        <g id="Vive" transform="translate(-742.000000, -1393.000000)">
            <g id="Post-Copy-2" transform="translate(528.000000, 1371.000000)">
                <g id="Group-8" transform="translate(214.000000, 22.000000)">
                    <g id="Group-3" transform="translate(0.000000, 0.846000)">
                        <mask id="mask-2" fill="white">
                            <use xlink:href="#path-1"></use>
                        </mask>
                        <g id="Clip-2"></g>
                        <path d="M78.2278,19.3594 C73.3208,15.2084 67.7498,9.5854 61.4408,5.1494 C61.4408,5.1494 38.2638,-10.2546 14.9688,13.0404 C-9.3982,37.4064 1.3258,74.7274 9.9708,91.3484 C19.4788,109.6264 35.0638,121.1184 51.7248,130.1544 C66.0328,137.9134 81.6448,144.0774 99.0098,145.4164 L88.7168,121.5504 L48.4458,104.8824 L88.7168,88.2134 L105.7318,48.7654 L122.7468,88.2134 L163.0168,104.8824 L122.7468,121.5504 L112.4338,145.4594 C115.4388,145.2474 118.4928,144.8874 121.5998,144.3554 C136.7428,141.7624 152.6118,135.2934 168.4548,128.3104 L168.4548,32.5984 C134.2218,39.0894 100.6618,38.3374 78.2278,19.3594" id="Fill-1" fill="#FFE0F3" mask="url(#mask-2)"></path>
                    </g>
                    <path d="M122.7468,122.397 L163.0168,105.729 L122.7468,89.06 L105.7318,49.612 L88.7168,89.06 L48.4458,105.729 L88.7168,122.397 L99.0098,146.262 C103.3708,146.599 107.8438,146.63 112.4338,146.305 L122.7468,122.397 Z" id="Fill-4" fill="#FFD1EC"></path>
                    <path d="M112.4338,146.305 C107.8438,146.63 103.3708,146.599 99.0098,146.262 L105.7318,161.846 L112.4338,146.305 Z" id="Fill-6" fill="#FFDEF4"></path>
                </g>
            </g>
        </g>
    </g>
</svg>