<?xml version="1.0" encoding="UTF-8"?>
<svg width="166px" height="35px" viewBox="0 0 166 35" version="1.1" xmlns="http://www.w3.org/2000/svg" xmlns:xlink="http://www.w3.org/1999/xlink">
    <title>Group 20</title>
    <g id="Symbols" stroke="none" stroke-width="1" fill="none" fill-rule="evenodd">
        <g id="Header" transform="translate(-115.000000, -20.000000)" fill="#333333">
            <g id="Group-20" transform="translate(115.000000, 19.997726)">
                <path d="M0,11.7624801 C0,5.10552317 5.0279602,0 11.9617478,0 C16.1350018,0 19.8155251,2.03577117 21.8203125,5.23502515 L17.2854593,7.81988472 C16.2666976,6.07512301 14.2950223,5.04114218 11.9617478,5.04114218 C7.88670127,5.04114218 5.25786356,7.72312824 5.25786356,11.7624801 C5.25786356,15.8016469 7.88670127,18.483818 11.9617478,18.483818 C14.2950223,18.483818 16.2994335,17.4498372 17.2854593,15.7047054 L21.8203125,18.289935 C19.848449,21.488819 16.1679257,23.5245902 11.9617478,23.5245902 C5.0279602,23.5245902 0,18.419067 0,11.7624801" id="Fill-1"></path>
                <path d="M56.2734375,14.9181261 C56.2734375,10.0607522 60.1088612,6.31147541 64.8868118,6.31147541 C69.6651345,6.31147541 73.5,10.0607522 73.5,14.9181261 C73.5,19.7756867 69.6651345,23.5245902 64.8868118,23.5245902 C60.1088612,23.5245902 56.2734375,19.7756867 56.2734375,14.9181261 M68.6250985,14.9181261 C68.6250985,12.6033845 66.999449,11.0712353 64.8868118,11.0712353 C62.7739885,11.0712353 61.1490834,12.6033845 61.1490834,14.9181261 C61.1490834,17.2328678 62.7739885,18.765017 64.8868118,18.765017 C66.999449,18.765017 68.6250985,17.2328678 68.6250985,14.9181261" id="Fill-3"></path>
                <path d="M91.875,13.5865013 L91.875,23.5245902 L87.0299022,23.5245902 L87.0299022,14.2983637 C87.0299022,12.2915826 85.7704097,11.3525024 84.2198527,11.3525024 C82.443323,11.3525024 81.2158217,12.3885115 81.2158217,14.6870061 L81.2158217,23.5245902 L76.3710938,23.5245902 L76.3710938,7.33856939 L81.2158217,7.33856939 L81.2158217,8.86014986 C82.0879061,7.6623454 83.7033702,6.8852459 85.8345771,6.8852459 C89.0971266,6.8852459 91.875,9.21617375 91.875,13.5865013" id="Fill-5"></path>
                <path d="M110.824219,13.5865013 L110.824219,23.5245902 L105.979179,23.5245902 L105.979179,14.2983637 C105.979179,12.2915826 104.719701,11.3525024 103.169163,11.3525024 C101.392654,11.3525024 100.165353,12.3885115 100.165353,14.6870061 L100.165353,23.5245902 L95.3203125,23.5245902 L95.3203125,7.33875472 L100.165353,7.33875472 L100.165353,8.86014986 C101.037057,7.6623454 102.652686,6.8852459 104.783868,6.8852459 C108.046379,6.8852459 110.824219,9.21617375 110.824219,13.5865013" id="Fill-7"></path>
                <path d="M122.937992,19.1560332 C124.296172,19.1560332 125.455774,18.6347404 126.118458,17.9174729 L130.093804,20.1668896 C128.470475,22.3836439 126.018695,23.5245902 122.87161,23.5245902 C117.206742,23.5245902 113.695312,19.7756867 113.695312,14.9181261 C113.695312,10.0607522 117.273314,6.31147541 122.507266,6.31147541 C127.344253,6.31147541 130.921875,9.99542726 130.921875,14.9181261 C130.921875,15.6027312 130.855872,16.2546738 130.723297,16.8743273 L118.962456,16.8743273 C119.592329,18.5694155 121.116085,19.1560332 122.937992,19.1560332 L122.937992,19.1560332 Z M125.985504,13.2230379 C125.455774,11.3321616 123.96483,10.6471833 122.474265,10.6471833 C120.586355,10.6471833 119.3268,11.5602389 118.863642,13.2230379 L125.985504,13.2230379 Z" id="Fill-9"></path>
                <path d="M132.644531,14.9181261 C132.644531,10.0607522 136.344888,6.31147541 141.322129,6.31147541 C144.49831,6.31147541 147.314728,7.97427443 148.722656,10.4842443 L144.432882,12.9621116 C143.876459,11.8211653 142.697437,11.1365602 141.256889,11.1365602 C139.128499,11.1365602 137.556156,12.6687094 137.556156,14.9181261 C137.556156,17.1675429 139.128499,18.699692 141.256889,18.699692 C142.697437,18.699692 143.909267,18.0150869 144.432882,16.8743273 L148.722656,19.3193455 C147.314728,21.8619778 144.531118,23.5245902 141.322129,23.5245902 C136.344888,23.5245902 132.644531,19.7756867 132.644531,14.9181261" id="Fill-11"></path>
                <path d="M157.980923,11.6601936 L157.980923,17.4970108 C157.980923,18.9148229 159.193433,19.0467871 161.355469,18.9148229 L161.355469,23.3995269 C154.934078,24.05897 153.066166,22.1133014 153.066166,17.4970108 L153.066166,11.6601936 L150.445312,11.6601936 L150.445312,6.9117501 L153.066166,6.9117501 L153.066166,3.77897055 L157.980923,2.29508197 L157.980923,6.9117501 L161.355469,6.9117501 L161.355469,11.6601936 L157.980923,11.6601936 Z" id="Fill-13"></path>
                <path d="M49.0990021,10.0189937 L49.0990021,7.11039635 L44.2212556,7.11039635 L44.2212556,23.4513061 L44.2287025,23.4513061 L44.2287025,28.4151002 C44.2287025,29.3394149 43.4806573,30.091777 42.5611462,30.091777 C41.6414489,30.091777 40.8934037,29.3394149 40.8934037,28.4151002 L40.8934037,19.2587721 L40.8746001,19.2587721 L40.8746001,13.4180017 C40.8746001,9.00598978 38.0779013,6.65272963 34.7936141,6.65272963 C32.6472194,6.65272963 31.0211798,7.43708731 30.1433716,8.64636777 L30.1433716,0.573770492 L25.265625,0.573770492 L25.265625,23.4513061 L30.1433716,23.4513061 L30.1433716,14.5290504 C30.1433716,12.2085342 31.3788191,11.1627863 33.1675744,11.1627863 C34.7284533,11.1627863 35.9966674,12.1106766 35.9966674,14.1368715 L35.9966674,23.4513061 L36.009141,23.4513061 L36.009141,28.4151002 C36.009141,32.0459353 38.948635,35 42.5611462,35 C46.1738436,35 49.1129651,32.0459353 49.1129651,28.4151002 L49.1129651,21.4731979 L49.0990021,21.4731979 L49.0990021,16.0650218 C49.0990021,12.8297335 51.9604893,12.012819 53.9765625,12.3395099 L53.9765625,6.78351828 C51.9279089,6.78351828 49.7493063,7.82945326 49.0990021,10.0189937" id="Fill-15"></path>
                <g id="Group-19" transform="translate(162.579108, 6.894590)">
                    <path d="M1.34613281,0 C1.71855469,0 2.03458008,0.129713115 2.29400391,0.388934426 C2.55363281,0.648155738 2.68324219,0.964959016 2.68324219,1.33913934 C2.68324219,1.71331967 2.55363281,2.03053279 2.29400391,2.29077869 C2.03458008,2.55122951 1.71855469,2.68135246 1.34613281,2.68135246 C0.973916016,2.68135246 0.656455078,2.55020492 0.393544922,2.28770492 C0.131044922,2.02540984 0,1.70901639 0,1.33913934 C0,0.967008197 0.130429687,0.650614754 0.392314453,0.390368852 C0.653583984,0.130122951 0.971865234,0 1.34613281,0 L1.34613281,0 Z M0.644765625,2.03995902 C0.838154297,2.23135246 1.07214844,2.32684426 1.34613281,2.32684426 C1.62032227,2.32684426 1.85267578,2.2317623 2.04298828,2.04159836 C2.23330078,1.85122951 2.32845703,1.61721311 2.32845703,1.33913934 C2.32845703,1.06311475 2.23330078,0.829918033 2.04298828,0.639754098 C1.85267578,0.449590164 1.62032227,0.354303279 1.34613281,0.354303279 C1.06804687,0.354303279 0.833027344,0.45 0.641484375,0.641188525 C0.450351562,0.832581967 0.354375,1.06516393 0.354375,1.33913934 C0.354375,1.61495902 0.451376953,1.84856557 0.644765625,2.03995902 L0.644765625,2.03995902 Z M1.9144043,1.15102459 C1.9144043,1.32868852 1.84201172,1.45819672 1.69763672,1.5397541 L1.95521484,1.98196721 L1.5815625,1.98196721 L1.36192383,1.59938525 L1.21734375,1.59938525 L1.21734375,1.98196721 L0.850253906,1.98196721 L0.850253906,0.674180328 L1.44026367,0.674180328 C1.57869141,0.674180328 1.69209961,0.719262295 1.78089844,0.809016393 C1.86990234,0.89897541 1.9144043,1.01290984 1.9144043,1.15102459 L1.9144043,1.15102459 Z M1.21734375,1.00040984 L1.21734375,1.27622951 L1.40581055,1.27622951 C1.45379883,1.27622951 1.4915332,1.26372951 1.51901367,1.23872951 C1.54608398,1.21352459 1.55961914,1.18012295 1.55961914,1.13831967 C1.55961914,1.09651639 1.54608398,1.06311475 1.51901367,1.03790984 C1.4915332,1.01290984 1.45379883,1.00040984 1.40581055,1.00040984 L1.21734375,1.00040984 Z" id="Fill-17"></path>
                </g>
            </g>
        </g>
    </g>
</svg>