<?xml version="1.0" encoding="UTF-8"?>
<svg width="1359px" height="720px" viewBox="0 0 1359 720" version="1.1" xmlns="http://www.w3.org/2000/svg" xmlns:xlink="http://www.w3.org/1999/xlink">
    <title>Group 29</title>
    <defs>
        <path d="M8.17598416,0 C3.70121418,0 0.0664215686,3.59188489 0,8.04802878 L0,8.04802878 L0,701.952993 C0.0664215686,706.408115 3.70121418,710 8.17598416,710 L8.17598416,710 L1346.82504,710 C1351.33966,710 1354.99898,706.340691 1354.99898,701.82836 L1354.99898,701.82836 L1354.99898,8.17266187 C1354.99898,3.65930935 1351.33966,0 1346.82504,0 L1346.82504,0 L8.17598416,0 Z" id="path-1"></path>
        <path d="M0,0.127516779 C1.47932002,4.51661952 2.89511757,8.91111031 4.24739264,13.2991354 L4.24739264,13.2991354 C8.23315882,26.2326025 11.6935188,39.1380516 14.6779985,51.7988835 L14.6779985,51.7988835 C24.5024491,93.4398626 27.6914927,136.491432 24.6564104,179.132433 L24.6564104,179.132433 C24.1320808,186.479573 23.4085706,193.812705 22.5181793,201.127517 L22.5181793,201.127517 C85.7930248,181.478389 149.822604,160.387419 202.757282,120.807906 L202.757282,120.807906 C246.588867,88.0334967 280.247166,44.554116 313,0.127516779 L313,0.127516779 L0,0.127516779 Z" id="path-3"></path>
        <path d="M302.447939,3.5434966 C231.104281,25.6363312 158.213335,48.5134578 98.4441294,93.2658187 L98.4441294,93.2658187 C38.6760859,138.019343 -6.46474773,209.669201 0.760573557,284.176954 L0.760573557,284.176954 C3.84701707,315.993149 16.1846597,345.881196 34.0028596,372.57971 L34.0028596,372.57971 C103.602916,342.700973 166.170481,296.306718 213.633407,237.165971 L213.633407,237.165971 C267.800084,169.670302 301.552325,86.4946082 312,0.579710145 L312,0.579710145 C308.813657,1.57112988 305.628475,2.55789506 302.447939,3.5434966 L302.447939,3.5434966 Z" id="path-5"></path>
        <path d="M0,137.444031 C34.6785097,154.009439 71.808143,166.189855 109.669643,175.767934 L109.669643,175.767934 C112.862098,176.578135 116.060861,177.368319 119.263831,178.137431 L119.263831,178.137431 C141.681465,183.546501 164.303096,188.104279 186.77541,192.164769 L186.77541,192.164769 C206.244545,195.68372 225.829349,198.941383 245.421513,202.234868 L245.421513,202.234868 C288.527009,209.480325 331.67667,216.902782 373.729581,227.677725 L373.729581,227.677725 L373.730632,227.677725 C379.487776,229.152735 385.220734,230.689905 390.933714,232.297665 L390.933714,232.297665 L528,232.297665 C501.664354,99.9956518 385.117684,0.29766537 245.328978,0.29766537 L245.328978,0.29766537 C141.659383,0.29766537 50.7879966,55.1416722 0,137.444031 L0,137.444031 Z" id="path-7"></path>
        <path d="M83.2229233,0 C73.722445,6.11926902 63.4833017,12.3591651 52.7649967,18.7697792 L52.7649967,18.7697792 C36.01988,28.7808052 18.1029117,39.2027811 0,50.1982468 L0,50.1982468 L0,498.60082 C60.3917383,531.785536 130.363645,549.839731 198.672278,550.885506 L198.672278,550.885506 C200.453043,550.913108 202.24096,550.930486 204.020703,550.930486 L204.020703,550.930486 L205.101627,550.930486 C259.90587,550.853816 314.461848,539.078364 364.834102,517.481004 L364.834102,517.481004 C349.161735,494.025169 338.311635,467.768332 335.597067,439.818627 L335.597067,439.818627 C329.240257,374.362076 368.943245,311.416204 421.51106,272.099952 L421.51106,272.099952 C474.077853,232.785744 538.186415,212.688045 600.934117,193.278328 L600.934117,193.278328 C603.73144,192.414516 606.53285,191.546614 609.335282,190.676668 L609.335282,190.676668 C610.1802,183.737544 610.86676,176.782063 611.362268,169.811249 L611.362268,169.811249 C614.242347,129.360284 611.217192,88.5198367 601.894483,49.0175325 L601.894483,49.0175325 C599.062423,37.0069592 595.778787,24.7653544 591.996577,12.4961484 L591.996577,12.4961484 C590.712342,8.33246939 589.369872,4.16367904 587.967123,0 L587.967123,0 L83.2229233,0 Z" id="path-9"></path>
        <path d="M0,206.829836 C0.0685326753,211.352679 3.76099015,215 8.30802933,215 L8.30802933,215 L460.129421,215 C466.85393,181.346311 479.526245,149.839935 497,121.607433 L497,121.607433 C467.033569,107.33558 438.922711,89.7587318 413.809639,67.691198 L413.809639,67.691198 C398.649381,54.3705943 384.693636,39.1931352 373.10746,22.5633869 L373.10746,22.5633869 C372.32245,21.4389001 371.56236,20.2978158 370.800193,19.1588061 L370.800193,19.1588061 C317.603262,41.9317376 259.811526,53.942169 201.921144,53.0573099 L201.921144,53.0573099 C132.496506,51.9961015 61.3782794,33.6744363 0,0 L0,0 L0,206.829836 Z" id="path-11"></path>
        <path d="M8.19614634,0 C3.70931707,0 0.0676097561,3.58632 0,8.03556 L0,8.03556 L0,50.08608 C18.1511707,39.11598 36.1169268,28.7181 52.9056585,18.7272 L52.9056585,18.7272 C63.6515122,12.3318 73.92,6.1047 83.4468293,0 L83.4468293,0 L8.19614634,0 Z" id="path-13"></path>
    </defs>
    <g id="Chronnect" stroke="none" stroke-width="1" fill="none" fill-rule="evenodd">
        <g id="Group-29" transform="translate(0.000000, 0.872483)">
            <g id="Group-3" transform="translate(4.000000, 5.127517)">
                <mask id="mask-2" fill="white">
                    <use xlink:href="#path-1"></use>
                </mask>
                <g id="Clip-2"></g>
                <polygon id="Fill-1" mask="url(#mask-2)" points="-5.10935143 715.107914 1360.10935 715.107914 1360.10935 -5.10791367 -5.10935143 -5.10791367"></polygon>
            </g>
            <g id="Group-6" transform="translate(584.000000, 0.000000)">
                <mask id="mask-4" fill="white">
                    <use xlink:href="#path-3"></use>
                </mask>
                <g id="Clip-5"></g>
                <polygon id="Fill-4" fill="#D34396" mask="url(#mask-4)" points="-5 206.127517 319 206.127517 319 -5.87248322 -5 -5.87248322"></polygon>
            </g>
            <g id="Group-9" transform="translate(320.000000, 172.547807)">
                <mask id="mask-6" fill="white">
                    <use xlink:href="#path-5"></use>
                </mask>
                <g id="Clip-8"></g>
                <polygon id="Fill-7" fill="#D34396" mask="url(#mask-6)" points="-6 377.57971 318 377.57971 318 -5.42028986 -6 -5.42028986"></polygon>
            </g>
            <g id="Group-15" transform="translate(493.000000, 485.829851)">
                <mask id="mask-8" fill="white">
                    <use xlink:href="#path-7"></use>
                </mask>
                <g id="Clip-14"></g>
                <polygon id="Fill-13" fill="#D34396" mask="url(#mask-8)" points="-6 299.297665 538 299.297665 538 -4.70233463 -6 -4.70233463"></polygon>
            </g>
            <g id="Group-18" transform="translate(4.000000, 8.127517)">
                <mask id="mask-10" fill="white">
                    <use xlink:href="#path-9"></use>
                </mask>
                <g id="Clip-17"></g>
            </g>
            <g id="Group-21" transform="translate(0.000000, 502.127517)">
                <mask id="mask-12" fill="white">
                    <use xlink:href="#path-11"></use>
                </mask>
                <g id="Clip-20"></g>
                <polygon id="Fill-19" fill="#D34396" mask="url(#mask-12)" points="-5 406 502 406 502 -5 -5 -5"></polygon>
            </g>
            <g id="Group-24" transform="translate(0.000000, 0.127517)">
                <mask id="mask-14" fill="white">
                    <use xlink:href="#path-13"></use>
                </mask>
                <g id="Clip-23"></g>
                <polygon id="Fill-22" fill="#D34396" mask="url(#mask-14)" points="-5.12195122 55.18608 89.3596098 55.18608 89.3596098 -5.61 -5.12195122 -5.61"></polygon>
            </g>
        </g>
    </g>
</svg>