<?xml version="1.0" encoding="UTF-8"?>
<svg width="1359px" height="705px" viewBox="0 0 1359 705" version="1.1" xmlns="http://www.w3.org/2000/svg" xmlns:xlink="http://www.w3.org/1999/xlink">
    <title>Group 32</title>
    <defs>
        <polygon id="path-1" points="0.400290909 0.423533654 511.526451 0.423533654 511.526451 314.738005 0.400290909 314.738005"></polygon>
        <polygon id="path-3" points="0 0.424921808 655.141843 0.424921808 655.141843 705 0 705"></polygon>
        <polygon id="path-5" points="0.944555792 0.956164894 758.527015 0.956164894 758.527015 568.989362 0.944555792 568.989362"></polygon>
    </defs>
    <g id="Chronnect" stroke="none" stroke-width="1" fill="none" fill-rule="evenodd">
        <g id="Group-32">
            <g id="Group-28" transform="translate(256.000000, 157.500000) scale(-1, 1) translate(-256.000000, -157.500000) ">
                <mask id="mask-2" fill="white">
                    <use xlink:href="#path-1"></use>
                </mask>
                <g id="Clip-27"></g>
                <path d="M9.7984253,133.577668 C145.169809,96.983149 296.784544,126.064111 408.909508,210.129736 C447.707168,239.218774 482.651674,274.844062 511.527058,314.738005 L511.527058,0.423533654 L62.3775874,0.423533654 C31.4714055,39.1917548 9.72557154,85.5472356 0.400290909,136.244062 C3.52389565,135.324303 6.6545834,134.427764 9.7984253,133.577668" id="Fill-26" fill="#5FC6CB" mask="url(#mask-2)"></path>
            </g>
            <g id="Group-10" transform="translate(1031.000000, 352.500000) scale(-1, 1) translate(-1031.000000, -352.500000) translate(703.000000, 0.000000)">
                <mask id="mask-4" fill="white">
                    <use xlink:href="#path-3"></use>
                </mask>
                <g id="Clip-9"></g>
                <path d="M537.358003,693.987131 C488.764475,604.010115 513.9573,490.616378 551.352333,401.422246 C575.193738,344.557978 611.001837,293.042404 655.141843,250.04853 C618.380573,233.357124 581.925572,226.050209 557.932549,227.099111 C461.427772,231.320008 310.005991,244.240625 245.765498,137.480159 C211.460438,80.4682145 174.987242,33.4314641 138.023815,0.424921808 L0,0.424921808 L0,532.031335 C53.9719199,601.607856 123.694915,664.021091 203.752185,705.000101 L543.85028,705.000101 C541.561861,701.41239 539.387661,697.746794 537.358003,693.987131" id="Fill-8" fill="#5FC6CB" mask="url(#mask-4)"></path>
            </g>
            <g id="Group-16" transform="translate(379.500000, 419.500000) scale(-1, 1) translate(-379.500000, -419.500000) translate(0.000000, 135.000000)">
                <mask id="mask-6" fill="white">
                    <use xlink:href="#path-5"></use>
                </mask>
                <g id="Clip-15"></g>
                <path d="M242.911937,57.0465904 C242.911937,37.8909521 244.670472,19.1476543 248.009668,0.956164894 C175.902646,22.2341436 109.61193,61.9744628 55.7391004,114.415473 C135.253194,150.491218 216.200392,230.461005 175.531737,364.818293 C149.080941,452.206165 84.2152442,524.238399 0.944555792,568.989463 L758.527621,568.989463 L758.527621,286.273505 C703.781588,335.705846 631.248071,365.810739 551.680413,365.810739 C381.152013,365.810739 242.911937,227.57159 242.911937,57.0465904" id="Fill-14" fill="#5FC6CB" mask="url(#mask-6)"></path>
            </g>
        </g>
    </g>
</svg>